<?xml version="1.0" encoding="UTF-8"?>
<svg version="1.1" xmlns="http://www.w3.org/2000/svg" width="3647" height="4195">
<path d="M0 0 C5.11450436 0.00753975 10.22893113 0.00481264 15.34343266 -0.0036037 C54.98707645 -0.06704618 94.52715989 0.54366614 134.14104009 2.25713849 C135.04508454 2.29601682 135.949129 2.33489514 136.88056874 2.3749516 C146.83584056 2.80685445 156.78542284 3.30824144 166.73322606 3.88867307 C168.86291963 4.0127843 170.99272602 4.13482776 173.12254643 4.25674176 C244.88083816 8.38745143 316.43206492 15.25707777 649.14104009 74.25713849 C650.22437627 74.51819379 651.30771245 74.77924909 652.423877 75.04821515 C751.53254026 98.95159192 849.17139212 128.96531244 1049.14104009 207.25713849 C1049.79336614 207.53775128 1050.44569219 207.81836408 1051.11778569 208.10748029 C1082.39294167 221.56612704 1113.30717516 235.78280832 1143.91594243 250.69317365 C1147.93601404 252.64264971 1151.96993313 254.56204053 1156.00578618 256.47857404 C1174.96968242 265.48814695 1193.7520048 274.86265972 1212.28068852 284.73711896 C1215.05880321 286.21343699 1217.84097634 287.68178951 1220.62433171 289.14819074 C1235.34562001 296.90557299 1249.98881986 304.75814184 1264.43791509 313.01495099 C1269.67430318 316.00480716 1274.94761744 318.92479871 1280.22697759 321.83794904 C1292.30763653 328.50691392 1304.26571402 335.34228147 1316.10148931 342.43633771 C1318.88411282 344.10322977 1321.66986582 345.76472097 1324.45665288 347.42463422 C1340.81213523 357.169778 1357.03962414 367.09610735 1373.14104009 377.25713849 C1374.84399029 378.32772908 1376.5471096 379.39805075 1378.25041509 380.46807599 C1379.85995354 381.4808371 1381.46933741 382.49384394 1383.07854009 383.50713849 C1383.75038335 383.92978986 1384.42222661 384.35244123 1385.11442876 384.78790021 C1398.9428316 393.52249342 1412.60407318 402.51081084 1426.2072022 411.59112287 C1428.70418167 413.25756667 1431.20280371 414.92152595 1433.70158696 416.58526349 C1447.27128588 425.62964388 1460.729764 434.82710135 1474.07854009 444.19463849 C1474.91498052 444.78108136 1475.75142095 445.36752423 1476.61320806 445.9717381 C1479.12323929 447.73246726 1481.63227598 449.49460448 1484.14104009 451.25713849 C1484.88531255 451.77953107 1485.62958501 452.30192365 1486.39641118 452.8401463 C1503.01188644 464.50736871 1519.43141709 476.43325809 1535.75871587 488.49981427 C1538.11067058 490.23473639 1540.46688848 491.96368993 1542.82463384 493.69073224 C1552.1226271 500.50725815 1561.33926275 507.42051799 1570.49797368 514.42315412 C1575.85809281 518.52130587 1581.23636009 522.59295534 1586.64104009 526.63213849 C1593.52216365 531.77954979 1600.35003618 536.99113195 1607.14104009 542.25713849 C1608.17382085 543.057888 1608.17382085 543.057888 1609.22746587 543.87481427 C1618.65823052 551.19103918 1628.06477182 558.53739163 1637.44230962 565.92168927 C1639.20298898 567.30583933 1640.96658555 568.6861986 1642.73088384 570.06573224 C1648.93408473 574.91927922 1655.09222438 579.81666596 1661.17619634 584.81963849 C1664.76087837 587.76672885 1668.35466936 590.7023981 1671.95354009 593.63213849 C1672.97786138 594.46612164 1672.97786138 594.46612164 1674.02287602 595.31695294 C1678.39841796 598.86936801 1682.8167317 602.36032323 1687.26604009 605.81963849 C1692.67883831 610.03488778 1697.9129886 614.42641804 1703.1002686 618.91534162 C1707.45743125 622.68489085 1711.89096491 626.34775292 1716.36369634 629.97979474 C1720.04942762 633.00199072 1723.67848831 636.08861056 1727.30974126 639.17583966 C1730.67974325 642.03573344 1734.08139265 644.84976831 1737.51604009 647.63213849 C1743.22119412 652.27740904 1748.76482624 657.09870645 1754.31291509 661.92901349 C1757.9283842 665.07655535 1761.56195227 668.20237782 1765.20354009 671.31963849 C1765.77403081 671.80835431 1766.34452153 672.29707013 1766.93229985 672.80059552 C1769.87806769 675.32316151 1772.82671629 677.84230812 1775.77775884 680.35870099 C1781.89909408 685.58368904 1787.96566817 690.852473 1793.93010259 696.25713849 C1798.30639332 700.21590325 1802.75596215 704.08698877 1807.25822759 707.90166974 C1814.09014572 713.70056309 1820.76680624 719.62079239 1827.30705571 725.74737287 C1830.84301419 729.05908029 1834.42659765 732.29424374 1838.09416509 735.46026349 C1841.30440319 738.27841144 1844.43794069 741.18007043 1847.58122563 744.07232404 C1850.72888537 746.96710416 1853.8934211 749.84097904 1857.07854009 752.69463849 C1861.48535514 756.65019568 1865.84169841 760.6577184 1870.18815923 764.67925763 C1873.78676217 768.00876685 1877.39721704 771.32461205 1881.01604009 774.63213849 C1887.43286944 780.50448381 1893.78939035 786.44082391 1900.13957524 792.38506818 C1902.21495461 794.32627445 1904.29309085 796.26449883 1906.37150884 798.20245099 C1912.43402524 803.86210521 1918.48002219 809.51281384 1924.28728032 815.43633771 C1926.06498177 817.18243246 1927.89963005 818.7994907 1929.79729009 820.41338849 C1935.29067925 825.18914999 1940.32980928 830.39793447 1945.43010259 835.58526349 C1946.18033696 836.34323224 1946.93057134 837.10120099 1947.70354009 837.88213849 C1948.36482915 838.55502912 1949.02611821 839.22791974 1949.70744634 839.92120099 C1951.65797147 841.79345465 1953.63463389 843.54909035 1955.6868012 845.30488324 C1960.61418659 849.60720927 1965.22398742 854.19991157 1969.8424561 858.82915998 C1970.7877257 859.77307122 1971.73320717 860.71677033 1972.67888188 861.6602757 C1975.22451335 864.20138446 1977.76701496 866.74560258 1980.30879259 869.29056549 C1982.98256517 871.96688854 1985.65879809 874.64074962 1988.33462834 877.31501508 C1992.82585263 881.80442547 1997.31497685 886.29592768 2001.80290532 890.78863263 C2006.97473056 895.96589898 2012.1501481 901.13955331 2017.32744581 906.31134671 C2021.79067675 910.77002426 2026.25193675 915.23066685 2030.71158665 919.69292623 C2033.36717714 922.35006727 2036.02341841 925.00654829 2038.68144727 927.66125035 C2041.18147191 930.1583638 2043.67899475 932.65795388 2046.17469335 935.15939069 C2047.51588233 936.50250973 2048.8595017 937.84320054 2050.20321965 939.18378949 C2054.53696707 943.53254537 2058.72627496 947.94480859 2062.71818757 952.61054826 C2064.55684465 954.73832661 2066.51085615 956.72402669 2068.51604009 958.69463849 C2069.27400884 959.44487287 2070.03197759 960.19510724 2070.81291509 960.96807599 C2071.58119634 961.72346662 2072.34947759 962.47885724 2073.14104009 963.25713849 C2078.13154915 968.16391418 2082.96151468 973.10858358 2087.52385259 978.41729474 C2089.93660451 981.16223714 2092.52542975 983.70738417 2095.14104009 986.25713849 C2099.08594905 990.14831708 2102.84110399 994.1090384 2106.43400884 998.33135724 C2109.05941642 1001.29320149 2111.89504792 1004.03341475 2114.73479009 1006.78838849 C2116.71465692 1008.81968044 2118.58037171 1010.88202603 2120.43791509 1013.02276349 C2124.14396398 1017.2934679 2127.99884726 1021.40640148 2131.89104009 1025.50713849 C2137.47441548 1031.41426229 2143.01426527 1037.35391684 2148.49260259 1043.35870099 C2151.40424669 1046.54519055 2154.33428047 1049.71417731 2157.26604009 1052.88213849 C2161.50073344 1057.46191588 2165.69355276 1062.07618621 2169.85588384 1066.72198224 C2172.47377189 1069.62627172 2175.11861065 1072.50481016 2177.76604009 1075.38213849 C2181.3444079 1079.27379706 2184.86935684 1083.2039499 2188.33244634 1087.19854474 C2190.57115259 1089.74670499 2192.8551422 1092.25124442 2195.14104009 1094.75713849 C2200.13792987 1100.24171271 2205.04417074 1105.78982681 2209.85197759 1111.44073224 C2214.75454152 1117.19685684 2219.68161309 1122.90487184 2224.82854009 1128.44463849 C2229.03133318 1132.9691195 2232.95793222 1137.66527586 2236.82854009 1142.47588849 C2239.34075265 1145.49733333 2241.96508097 1148.38152232 2244.64104009 1151.25713849 C2248.95103114 1155.8895951 2252.99165404 1160.67836366 2256.96135259 1165.60870099 C2259.11861407 1168.22988968 2261.35415009 1170.7486813 2263.64104009 1173.25713849 C2266.6638643 1176.57703335 2269.5661617 1179.95477961 2272.39104009 1183.44463849 C2276.0136697 1187.9192803 2279.73578411 1192.29108745 2283.51604009 1196.63213849 C2288.99695493 1202.92683793 2294.41231493 1209.27216067 2299.78947759 1215.65557599 C2301.17419479 1217.29642585 2302.56322899 1218.93352654 2303.95354009 1220.56963849 C2309.75922203 1227.4045826 2315.48266534 1234.29928166 2321.14104009 1241.25713849 C2326.45826389 1247.77048636 2331.79424837 1254.26805825 2337.14104009 1260.75713849 C2345.7146858 1271.16377836 2354.24505909 1281.60469929 2362.74260259 1292.07354474 C2364.98386612 1294.83425103 2367.22878213 1297.59191849 2369.47697759 1300.34698224 C2375.06281626 1307.19680602 2380.60354268 1314.07587138 2386.04777837 1321.03887677 C2389.38277405 1325.3022076 2392.75395644 1329.53509934 2396.14104009 1333.75713849 C2405.99935491 1346.05516121 2415.67324186 1358.49596833 2425.34270024 1370.94268537 C2427.69344891 1373.9680855 2430.04566248 1376.99234448 2432.39812016 1380.01641583 C2433.56094323 1381.51135772 2434.72354057 1383.0064752 2435.88591313 1384.5017674 C2438.82347562 1388.28033387 2441.76428163 1392.05629466 2444.71135259 1395.82745099 C2450.84972856 1403.6887766 2456.92624179 1411.58826074 2462.89250493 1419.5811131 C2466.6586369 1424.62497271 2470.48396277 1429.62039883 2474.32854009 1434.60479474 C2484.85232883 1448.25863682 2495.23592129 1462.00773787 2505.42326665 1475.91436505 C2508.32174854 1479.86743956 2511.23210388 1483.8117546 2514.14104009 1487.75713849 C2515.30643246 1489.33914927 2516.47179705 1490.92118052 2517.63713384 1492.50323224 C2519.98116026 1495.6846446 2522.3277489 1498.86414465 2524.67619634 1502.04229474 C2532.02439497 1511.99126602 2539.30622191 1521.98516092 2546.53215337 1532.02325177 C2548.68995327 1535.01928654 2550.8518665 1538.01234 2553.01408696 1541.00518537 C2554.63891105 1543.25419157 2556.26302264 1545.50371119 2557.88713384 1547.75323224 C2560.06433032 1550.76806368 2562.24426926 1553.78088543 2564.42619634 1556.79229474 C2571.24032198 1566.20189154 2577.98322513 1575.65810492 2584.66594243 1585.16143537 C2586.13038524 1587.24200092 2587.597982 1589.32029991 2589.06682134 1591.39776349 C2595.59358564 1600.62910792 2602.08862276 1609.882278 2608.56682134 1619.14776349 C2610.93565454 1622.5356932 2613.30815809 1625.92100149 2615.68400884 1629.30401349 C2623.04029233 1639.783584 2630.31658684 1650.31396256 2637.52775884 1660.89385724 C2639.15533961 1663.27808573 2640.78799338 1665.65875932 2642.42229009 1668.03838849 C2649.75364809 1678.71780583 2656.98243179 1689.46118327 2664.14104009 1700.25713849 C2662.80335248 1703.34770087 2661.49551673 1705.04547442 2658.78947759 1707.03448224 C2658.11118901 1707.54124494 2657.43290044 1708.04800763 2656.73405766 1708.57012677 C2656.00211186 1709.10621564 2655.27016606 1709.64230451 2654.51604009 1710.19463849 C2652.96369506 1711.35531036 2651.41295144 1712.51812668 2649.86369634 1713.68291974 C2649.07495122 1714.27540509 2648.2862061 1714.86789044 2647.47355962 1715.4783299 C2643.90257446 1718.20160788 2640.425042 1721.03378142 2636.95354009 1723.88213849 C2630.32044956 1729.31208894 2623.61473985 1734.638345 2616.85881352 1739.91436505 C2613.94832381 1742.18947782 2611.04509512 1744.47382219 2608.14104009 1746.75713849 C2606.9744073 1747.67384827 2605.80774065 1748.59051497 2604.64104009 1749.50713849 C2603.77479009 1750.18776349 2603.77479009 1750.18776349 2602.89104009 1750.88213849 C2597.64104008 1755.0071385 2597.64104008 1755.0071385 2595.89128423 1756.38189435 C2594.72373599 1757.29928858 2593.5562556 1758.21676916 2592.38884282 1759.13433576 C2589.48621218 1761.41558094 2586.58244735 1763.69535063 2583.67619634 1765.97198224 C2578.32408911 1770.16714191 2572.98461683 1774.37542429 2567.68596196 1778.63799787 C2561.754323 1783.40950555 2555.7675999 1788.09241327 2549.70354009 1792.69463849 C2543.35274519 1797.51725984 2537.12548719 1802.46826408 2530.95427251 1807.51812482 C2524.98602543 1812.39949083 2518.93535381 1817.16890946 2512.85881352 1821.91436505 C2509.94832381 1824.18947782 2507.04509512 1826.47382219 2504.14104009 1828.75713849 C2502.9744073 1829.67384827 2501.80774065 1830.59051497 2500.64104009 1831.50713849 C2499.77479009 1832.18776349 2499.77479009 1832.18776349 2498.89104009 1832.88213849 C2493.64104009 1837.00713849 2493.64104009 1837.00713849 2491.89128423 1838.38189435 C2490.72373599 1839.29928858 2489.5562556 1840.21676916 2488.38884282 1841.13433576 C2485.48621218 1843.41558094 2482.58244735 1845.69535063 2479.67619634 1847.97198224 C2473.63973079 1852.70326605 2467.62480076 1857.45932058 2461.64104009 1862.25713849 C2455.08541008 1867.51348492 2448.48965513 1872.71655909 2441.87492681 1877.89825177 C2438.96137182 1880.18167152 2436.05139816 1882.46964652 2433.14104009 1884.75713849 C2431.97439036 1885.67382672 2430.8077237 1886.59049339 2429.64104009 1887.50713849 C2428.77479009 1888.18776349 2428.77479009 1888.18776349 2427.89104009 1888.88213849 C2422.64104008 1893.0071385 2422.64104008 1893.0071385 2420.89128423 1894.38189435 C2419.72373599 1895.29928858 2418.5562556 1896.21676916 2417.38884282 1897.13433576 C2414.48621218 1899.41558094 2411.58244735 1901.69535063 2408.67619634 1903.97198224 C2402.63973079 1908.70326605 2396.62480076 1913.45932058 2390.64104009 1918.25713849 C2384.08541008 1923.51348492 2377.48965513 1928.71655909 2370.87492681 1933.89825177 C2367.96137182 1936.18167152 2365.05139816 1938.46964652 2362.14104009 1940.75713849 C2360.97439036 1941.67382672 2359.8077237 1942.59049339 2358.64104009 1943.50713849 C2357.77479009 1944.18776349 2357.77479009 1944.18776349 2356.89104009 1944.88213849 C2351.6410401 1949.00713848 2351.6410401 1949.00713848 2349.89128423 1950.38189435 C2348.72373599 1951.29928858 2347.5562556 1952.21676916 2346.38884282 1953.13433576 C2343.48621218 1955.41558094 2340.58244735 1957.69535063 2337.67619634 1959.97198224 C2331.63973079 1964.70326605 2325.62480076 1969.45932058 2319.64104009 1974.25713849 C2313.08541008 1979.51348492 2306.48965513 1984.71655909 2299.87492681 1989.89825177 C2296.96137182 1992.18167152 2294.05139816 1994.46964652 2291.14104009 1996.75713849 C2289.97439036 1997.67382672 2288.8077237 1998.59049339 2287.64104009 1999.50713849 C2286.77479009 2000.18776349 2286.77479009 2000.18776349 2285.89104009 2000.88213849 C2280.6410401 2005.00713848 2280.6410401 2005.00713848 2278.89128423 2006.38189435 C2277.72373599 2007.29928858 2276.5562556 2008.21676916 2275.38884282 2009.13433576 C2272.48621218 2011.41558094 2269.58244735 2013.69535063 2266.67619634 2015.97198224 C2261.32408911 2020.16714191 2255.98461683 2024.37542429 2250.68596196 2028.63799787 C2244.754323 2033.40950555 2238.7675999 2038.09241327 2232.70354009 2042.69463849 C2226.35274519 2047.51725984 2220.12548719 2052.46826408 2213.95427251 2057.51812482 C2207.98602543 2062.39949083 2201.93535381 2067.16890946 2195.85881352 2071.91436505 C2192.94832381 2074.18947782 2190.04509512 2076.47382219 2187.14104009 2078.75713849 C2185.9744073 2079.67384827 2184.80774065 2080.59051497 2183.64104009 2081.50713849 C2183.06354009 2081.96088849 2182.48604009 2082.41463849 2181.89104009 2082.88213849 C2176.64104008 2087.0071385 2176.64104008 2087.0071385 2174.89128423 2088.38189435 C2173.72373599 2089.29928858 2172.5562556 2090.21676916 2171.38884282 2091.13433576 C2168.48621218 2093.41558094 2165.58244735 2095.69535063 2162.67619634 2097.97198224 C2156.63973079 2102.70326605 2150.62480076 2107.45932058 2144.64104009 2112.25713849 C2138.08541008 2117.51348492 2131.48965513 2122.71655909 2124.87492681 2127.89825177 C2121.96137182 2130.18167152 2119.05139816 2132.46964652 2116.14104009 2134.75713849 C2114.97439036 2135.67382672 2113.8077237 2136.59049339 2112.64104009 2137.50713849 C2112.06354009 2137.96088849 2111.48604009 2138.41463849 2110.89104009 2138.88213849 C2105.64104007 2143.00713851 2105.64104007 2143.00713851 2103.89128423 2144.38189435 C2102.72373599 2145.29928858 2101.5562556 2146.21676916 2100.38884282 2147.13433576 C2097.48621218 2149.41558094 2094.58244735 2151.69535063 2091.67619634 2153.97198224 C2085.63973079 2158.70326605 2079.62480076 2163.45932058 2073.64104009 2168.25713849 C2067.08541008 2173.51348492 2060.48965513 2178.71655909 2053.87492681 2183.89825177 C2050.96137182 2186.18167152 2048.05139816 2188.46964652 2045.14104009 2190.75713849 C2043.97439036 2191.67382672 2042.8077237 2192.59049339 2041.64104009 2193.50713849 C2041.06354009 2193.96088849 2040.48604009 2194.41463849 2039.89104009 2194.88213849 C2034.64104009 2199.00713849 2034.64104009 2199.00713849 2032.89128423 2200.38189435 C2031.72373599 2201.29928858 2030.5562556 2202.21676916 2029.38884282 2203.13433576 C2026.48621218 2205.41558094 2023.58244735 2207.69535063 2020.67619634 2209.97198224 C2015.32408911 2214.16714191 2009.98461683 2218.37542429 2004.68596196 2222.63799787 C1998.754323 2227.40950555 1992.7675999 2232.09241327 1986.70354009 2236.69463849 C1980.35274519 2241.51725984 1974.12548719 2246.46826408 1967.95427251 2251.51812482 C1961.98602543 2256.39949083 1955.93535381 2261.16890946 1949.85881352 2265.91436505 C1946.94832381 2268.18947782 1944.04509512 2270.47382219 1941.14104009 2272.75713849 C1939.9744073 2273.67384827 1938.80774065 2274.59051497 1937.64104009 2275.50713849 C1937.06354009 2275.96088849 1936.48604009 2276.41463849 1935.89104009 2276.88213849 C1930.64104008 2281.0071385 1930.64104008 2281.0071385 1928.89128423 2282.38189435 C1927.72373599 2283.29928858 1926.5562556 2284.21676916 1925.38884282 2285.13433576 C1922.48621218 2287.41558094 1919.58244735 2289.69535063 1916.67619634 2291.97198224 C1910.63973079 2296.70326605 1904.62480076 2301.45932058 1898.64104009 2306.25713849 C1892.08541008 2311.51348492 1885.48965513 2316.71655909 1878.87492681 2321.89825177 C1875.96137182 2324.18167152 1873.05139816 2326.46964652 1870.14104009 2328.75713849 C1868.97439036 2329.67382672 1867.8077237 2330.59049339 1866.64104009 2331.50713849 C1866.06354009 2331.96088849 1865.48604009 2332.41463849 1864.89104009 2332.88213849 C1859.6410401 2337.00713848 1859.6410401 2337.00713848 1857.89128423 2338.38189435 C1856.72373599 2339.29928858 1855.5562556 2340.21676916 1854.38884282 2341.13433576 C1851.48621218 2343.41558094 1848.58244735 2345.69535063 1845.67619634 2347.97198224 C1839.63973079 2352.70326605 1833.62480076 2357.45932058 1827.64104009 2362.25713849 C1821.08541008 2367.51348492 1814.48965513 2372.71655909 1807.87492681 2377.89825177 C1804.96137182 2380.18167152 1802.05139816 2382.46964652 1799.14104009 2384.75713849 C1797.97439036 2385.67382672 1796.8077237 2386.59049339 1795.64104009 2387.50713849 C1795.06354009 2387.96088849 1794.48604009 2388.41463849 1793.89104009 2388.88213849 C1788.64104008 2393.0071385 1788.64104008 2393.0071385 1786.89128423 2394.38189435 C1785.72373599 2395.29928858 1784.5562556 2396.21676916 1783.38884282 2397.13433576 C1780.48621218 2399.41558094 1777.58244735 2401.69535063 1774.67619634 2403.97198224 C1769.32408911 2408.16714191 1763.98461683 2412.37542429 1758.68596196 2416.63799787 C1752.75432479 2421.40950411 1746.76765599 2426.09248787 1740.70354009 2430.69463849 C1732.92279339 2436.60179637 1725.3302881 2442.7203341 1717.77971196 2448.91778302 C1715.58075242 2450.71508518 1713.36324742 2452.4887025 1711.14104009 2454.25713849 C1706.87521198 2452.71312646 1704.70762443 2449.50471749 1702.07854009 2446.00713849 C1701.09561531 2444.72837878 1700.11253826 2443.44973609 1699.12932134 2442.17120099 C1698.63125981 2441.51796857 1698.13319829 2440.86473615 1697.62004399 2440.1917088 C1695.36013203 2437.23569323 1693.06515209 2434.3077081 1690.76604009 2431.38213849 C1690.3187354 2430.81148664 1689.87143071 2430.24083478 1689.41057134 2429.65289044 C1685.85090413 2425.1247474 1682.22196302 2420.65551653 1678.57854009 2416.19463849 C1673.85153656 2410.40706274 1669.26264753 2404.53895441 1664.73088384 2398.59698224 C1661.2557596 2394.07972781 1657.63371046 2389.6817351 1654.02775884 2385.26885724 C1650.51767811 2380.96777241 1647.05686934 2376.63337663 1643.64104009 2372.25713849 C1639.69918977 2367.20860163 1635.69079388 2362.21951286 1631.64104009 2357.25713849 C1627.13344036 2351.73374164 1622.69261367 2346.16529413 1618.30510259 2340.54620099 C1614.80327762 2336.07277141 1611.23292844 2331.65846648 1607.64104009 2327.25713849 C1603.59128319 2322.29476032 1599.58304515 2317.30555749 1595.64104009 2312.25713849 C1590.55506163 2305.74484432 1585.3500787 2299.33347479 1580.12932134 2292.92901349 C1577.15687179 2289.28172255 1574.2180444 2285.60849548 1571.28557134 2281.92901349 C1569.0424028 2279.13424613 1566.78052779 2276.35538793 1564.51628423 2273.57769513 C1559.85948376 2267.86464366 1555.23476535 2262.13290581 1550.70354009 2256.31963849 C1546.02258315 2250.31713128 1541.19558232 2244.4436978 1536.33928227 2238.58257794 C1532.64126532 2234.10915398 1529.01607447 2229.58901075 1525.45354009 2225.00713849 C1521.94835891 2220.50047698 1518.35325528 2216.09483113 1514.64104009 2211.75713849 C1510.92881908 2207.41943906 1507.33385685 2203.01370049 1503.82854009 2198.50713849 C1497.94150139 2190.93976526 1491.83805486 2183.55743319 1485.72453618 2176.17266583 C1482.17817132 2171.88269071 1478.66239268 2167.56764543 1475.14104009 2163.25713849 C1473.64118313 2161.42368813 1472.14118069 2159.59035678 1470.64104009 2157.75713849 C1461.64104009 2146.75713849 1452.64104009 2135.75713849 1443.64104009 2124.75713849 C1442.89209477 2123.84190412 1442.14314946 2122.92666974 1441.37150884 2121.98370099 C1439.93604073 2120.22896065 1438.50110213 2118.47378694 1437.06682134 2116.71807599 C1430.72238323 2108.95464156 1424.34757295 2101.21636307 1417.97160649 2093.47881818 C1415.60698148 2090.60897454 1413.24307751 2087.73853761 1410.87932134 2084.86797833 C1409.71930203 2083.45933691 1408.55914549 2082.05080847 1407.39885259 2080.6423924 C1404.44171748 2077.05264869 1401.48673136 2073.46117153 1398.53557134 2069.86651349 C1392.72704562 2062.79533338 1386.89190671 2055.75157454 1380.96574712 2048.77862287 C1377.47602703 2044.66762198 1374.05124559 2040.50763218 1370.64494634 2036.32745099 C1362.83248746 2026.74774322 1354.98089711 2017.20245745 1346.97136235 2007.78667951 C1344.17565872 2004.49552166 1341.4260338 2001.17152591 1338.70354009 1997.81963849 C1335.24829858 1993.57321467 1331.71406174 1989.40417555 1328.14104009 1985.25713849 C1323.82175052 1980.24394361 1319.5900689 1975.17176529 1315.41838384 1970.03448224 C1312.85900037 1966.91317582 1310.25514093 1963.83260425 1307.64104009 1960.75713849 C1304.28656882 1956.81063369 1300.96882179 1952.84071777 1297.70354009 1948.81963849 C1293.29190954 1943.4014327 1288.74780366 1938.10442999 1284.19182134 1932.80791974 C1277.96581642 1925.56897725 1271.78017769 1918.2984794 1265.76604009 1910.88213849 C1261.59882884 1905.75900782 1257.27791552 1900.78118921 1252.93840337 1895.80450177 C1249.77651565 1892.16994646 1246.67261068 1888.50201981 1243.64104009 1884.75713849 C1239.04551985 1879.08624972 1234.26123257 1873.58963713 1229.46916509 1868.08526349 C1224.82659255 1862.75250595 1220.2342362 1857.37697368 1215.6381104 1852.0042088 C1214.1081725 1850.21878225 1212.57433208 1848.43677704 1211.03947759 1846.65557599 C1206.44726873 1841.32163785 1201.88459051 1835.97671636 1197.45354009 1830.50713849 C1193.90241943 1826.13062222 1190.18306611 1821.94882389 1186.38713384 1817.78448224 C1184.07916411 1815.18751456 1181.88548146 1812.52309836 1179.70354009 1809.81963849 C1175.84278872 1805.04573549 1171.76666933 1800.52325422 1167.60979009 1796.00713849 C1164.41222712 1792.4452962 1161.42715666 1788.73148016 1158.42229009 1785.00713849 C1156.0738504 1782.17614271 1153.63194106 1779.46330251 1151.14104009 1776.75713849 C1147.04752917 1772.30986737 1143.2166151 1767.70996386 1139.42229009 1763.00713849 C1136.27791902 1759.21666378 1132.93701954 1755.62169463 1129.60197759 1751.99932599 C1127.23064114 1749.35697966 1124.98851011 1746.65019683 1122.76604009 1743.88213849 C1118.89885145 1739.08573139 1114.79123293 1734.58672389 1110.58293462 1730.09356427 C1106.68121479 1725.90402282 1103.06786521 1721.53550024 1099.48479009 1717.06963849 C1096.80895838 1713.85864044 1093.99745732 1710.80684712 1091.14104009 1707.75713849 C1087.49217353 1703.86135615 1083.9840577 1699.92379812 1080.64104009 1695.75713849 C1076.30176665 1690.35277067 1071.63707594 1685.30758726 1066.91447759 1680.24151349 C1062.62122209 1675.63565623 1058.51774587 1670.87613779 1054.43791509 1666.08135724 C1048.61290042 1659.24387467 1042.69599138 1652.52417929 1036.59807134 1645.92901349 C1033.97573748 1643.07738176 1031.4211569 1640.17583778 1028.88322759 1637.24932599 C1026.8260361 1634.89693214 1024.73507094 1632.57678883 1022.64104009 1630.25713849 C1019.95120578 1627.27651128 1017.27793645 1624.28468616 1014.64104009 1621.25713849 C1010.5302297 1616.54012565 1006.33436163 1611.9007496 1002.14104009 1607.25713849 C997.37070071 1601.97454791 992.62209602 1596.67779714 987.94572759 1591.31182599 C984.38464811 1587.2574368 980.75691759 1583.26260549 977.14104009 1579.25713849 C975.6407533 1577.59072998 974.14075136 1575.92406496 972.64104009 1574.25713849 C971.89854009 1573.43213849 971.15604009 1572.60713849 970.39104009 1571.75713849 C965.14104009 1565.92380516 959.89104009 1560.09047182 954.64104009 1554.25713849 C953.89596196 1553.42956037 953.15088384 1552.60198224 952.38322759 1551.74932599 C950.90811391 1550.1097397 949.43412357 1548.46914194 947.96135259 1546.82745099 C943.82034667 1542.21487145 939.6512689 1537.63050247 935.45354009 1533.06963849 C931.59175546 1528.87219158 927.81212191 1524.62274931 924.14104009 1520.25713849 C925.68029638 1516.03879688 928.79734688 1513.91582085 932.26604009 1511.31963849 C933.53915866 1510.34305426 934.81125417 1509.36513521 936.08244634 1508.38604474 C936.74776372 1507.87573712 937.4130811 1507.36542951 938.09855962 1506.83965802 C941.50891147 1504.19730795 944.85781006 1501.48057649 948.20354009 1498.75713849 C948.87425542 1498.21162335 949.54497075 1497.66610822 950.23601079 1497.10406232 C955.0580767 1493.169149 959.82641828 1489.17464081 964.56145024 1485.13555646 C967.85710827 1482.32723401 971.20050291 1479.59047733 974.57854009 1476.88213849 C979.59279033 1472.80622747 984.32146296 1468.46861055 989.0197022 1464.03692365 C992.00458795 1461.22324082 995.02311619 1458.4659261 998.11760259 1455.77276349 C1010.69195983 1444.82899997 1022.47331772 1433.02756071 1034.26604009 1421.25713849 C1035.21753438 1420.30952649 1035.21753438 1420.30952649 1036.18825078 1419.34277081 C1045.18400532 1410.39483723 1045.18400532 1410.39483723 1053.67277837 1400.9705174 C1056.18723138 1398.03629205 1058.86491983 1395.25485843 1061.51604009 1392.44463849 C1066.24300384 1387.39802905 1070.71613152 1382.22379701 1075.03947759 1376.82354474 C1077.12105435 1374.28154486 1079.29142389 1371.86184514 1081.51604009 1369.44463849 C1086.57498516 1363.88506865 1091.15105211 1357.99087338 1095.74699712 1352.04961896 C1097.08464219 1350.32965572 1098.43562931 1348.62141008 1099.79338384 1346.91729474 C1102.60503735 1343.38623607 1105.38185001 1339.82932069 1108.14104009 1336.25713849 C1108.6228272 1335.63468244 1109.10461431 1335.01222638 1109.60100102 1334.37090802 C1127.34379258 1311.27757393 1143.71945779 1286.5545113 1158.14104009 1261.25713849 C1158.66746099 1260.34657697 1159.19388188 1259.43601544 1159.73625493 1258.49786115 C1201.82681948 1185.61109407 1229.62778889 1105.17967576 1219.40935063 816.59869123 C1202.80066456 755.27594355 1177.54652711 695.85012779 1145.67766118 640.92022443 C1144.163178 638.29550524 1142.67365398 635.65822003 1141.19182134 633.01495099 C1109.32053941 576.28801113 1070.35042421 522.61864682 1028.22917485 473.09722638 C1025.29820348 469.6457399 1022.42389258 466.15495586 1019.57854009 462.63213849 C1015.62954259 457.77073724 1011.46777982 453.15666422 1007.20744634 448.56963849 C1005.14104009 446.25713849 1005.14104009 446.25713849 1003.14104009 443.25713849 C1000.17709192 443.85592818 998.15275859 444.73101883 995.69963384 446.48760724 C995.04325933 446.9536839 994.38688481 447.41976056 993.71062016 447.89996076 C993.00703374 448.40970441 992.30344731 448.91944806 991.57854009 449.44463849 C990.83692632 449.97565167 990.09531255 450.50666486 989.33122563 451.05376935 C986.92833437 452.77986756 984.53372153 454.51691956 982.14104009 456.25713849 C980.93979497 457.12870587 980.93979497 457.12870587 979.71428227 458.01788068 C969.93096115 465.12979958 960.28429211 472.38615113 950.82365727 479.92168927 C948.4749085 481.78582969 946.11140103 483.630875 943.74895024 485.47759748 C938.03452132 489.94796865 932.37449977 494.47639181 926.77385259 499.08916974 C925.02374482 500.53028222 923.26854397 501.96523252 921.50822759 503.39385724 C915.16221774 508.54652121 908.93359813 513.82279368 902.74260259 519.15948224 C900.39321032 521.18457968 898.03428869 523.19738579 895.66447759 525.19854474 C888.71150998 531.08340941 881.96560405 537.14113463 875.33586431 543.38848615 C872.21746324 546.32630068 869.08555054 549.22196859 865.82854009 552.00713849 C861.85853163 555.41738437 858.2355101 559.14942224 854.55900884 562.87041974 C852.57836426 564.82546633 850.57815844 566.65184773 848.45354009 568.44463849 C839.60904316 576.02563585 831.2541013 584.53858905 823.74260259 593.43682599 C821.80066587 595.64400285 819.73365885 597.69251463 817.64104009 599.75713849 C814.27003943 603.08834656 811.09589979 606.50825477 808.01213384 610.10479474 C805.8102418 612.63766011 803.53908183 615.10046372 801.26604009 617.56963849 C797.19686617 622.03102194 793.34126192 626.61658567 789.55119634 631.31573224 C787.32401372 634.03383356 785.04876288 636.69776976 782.74675298 639.35210919 C777.11561742 645.84738041 771.73291851 652.48604421 766.56926274 659.36065412 C764.97031275 661.48384105 763.35838992 663.59687846 761.74650884 665.71026349 C707.64265531 736.92037664 665.44311741 818.15793298 632.89104009 1054.75713849 C632.9339417 1055.59241071 632.97684331 1056.42768292 633.02104497 1057.28826642 C636.58405901 1124.71806839 652.73297197 1190.09162452 676.14104009 1253.25713849 C671.96845089 1251.62026246 669.17678935 1248.56382881 666.09025884 1245.43682599 C665.22471128 1244.5705911 665.22471128 1244.5705911 664.3416779 1243.68685651 C663.12146347 1242.46362483 661.90367658 1241.23796744 660.68815923 1240.01006818 C658.85061249 1238.15442823 657.0053547 1236.30675312 655.15861821 1234.46026349 C653.96869557 1233.26541839 652.77922827 1232.07011962 651.59025884 1230.87432599 C651.04834401 1230.33129834 650.50642919 1229.78827069 649.9480927 1229.22878766 C647.16889076 1226.41594847 644.50742186 1223.54847608 641.93522954 1220.54473615 C637.70209193 1215.66177814 633.12596062 1211.12914902 628.5402863 1206.58121991 C626.94750518 1205.00140716 625.35804851 1203.41831263 623.76933599 1201.834409 C620.39606696 1198.47246988 617.01886407 1195.1145003 613.64104009 1191.75713849 C609.72132173 1187.861165 605.80331267 1183.96350311 601.88952947 1180.06156659 C600.33688771 1178.51532294 598.78122606 1176.97216469 597.22539067 1175.42913556 C592.64454747 1170.87180805 588.21167198 1166.26007572 584.00734258 1161.35275006 C579.80971346 1156.63936614 575.26787029 1152.24133794 570.80119634 1147.78448224 C569.70920818 1146.6918186 568.61736834 1145.59900671 567.52566838 1144.50605512 C565.24876887 1142.22769011 562.97009356 1139.95112066 560.69011235 1137.67583966 C557.78761567 1134.77903954 554.88963302 1131.87777169 551.99297738 1128.97513223 C549.74268579 1126.72120385 547.48998916 1124.46969123 545.23658872 1122.21887136 C544.16788881 1121.15083211 543.09991334 1120.08206741 542.03271985 1119.01252294 C536.89438653 1113.86535262 531.72256914 1108.82727311 526.19864202 1104.09235883 C522.18583895 1100.51325167 518.43511922 1096.65849294 514.65031743 1092.84158063 C513.10411269 1091.28240123 511.55462113 1089.72655228 510.00432134 1088.17144513 C506.15759784 1084.31148046 502.31639293 1080.44603947 498.47502446 1076.58074689 C495.21678313 1073.30264407 491.95641019 1070.02668857 488.69328618 1066.75344586 C487.18027957 1065.23404384 485.67036039 1063.71162146 484.16057134 1062.18902326 C479.53837399 1057.54253673 474.85807304 1053.03575084 469.87956548 1048.77081037 C467.33301626 1046.55362104 464.98189169 1044.1920947 462.60979009 1041.78838849 C462.12957402 1041.30438581 461.64935796 1040.82038312 461.15458989 1040.32171369 C459.1430413 1038.29414203 457.13766356 1036.26051 455.13176274 1034.22735333 C449.91784999 1028.94905037 444.69460621 1023.76585191 439.04924321 1018.94268537 C434.64591554 1015.05315437 430.61113251 1010.76311602 426.49650884 1006.57354474 C422.47547833 1002.50840786 418.36361999 998.65193437 414.02971196 994.92315412 C411.09582971 992.33514837 408.37385892 989.55409017 405.64104009 986.75713849 C401.59177097 982.65670847 397.49473557 978.72564224 393.09807134 974.99541974 C389.77334862 972.04232271 386.70657767 968.8295834 383.58244634 965.66729474 C380.86901282 962.98859317 378.03326986 960.51105731 375.13713384 958.03448224 C372.07711458 955.30980756 369.24397165 952.36835777 366.36760259 949.45245099 C363.69470835 946.81707106 360.88735706 944.3794736 358.03947759 941.93682599 C355.55144983 939.73548456 353.24909931 937.37625334 350.92229009 935.00713849 C349.05714334 933.17471362 347.12176263 931.46360714 345.14104009 929.75713849 C341.94552541 927.00407969 338.96953398 924.11119571 336.01701665 921.10186505 C334.20323158 919.318294 332.33471278 917.65016543 330.40666509 915.99151349 C326.3066686 912.42662684 322.33860466 908.73920326 318.39104009 905.00713849 C311.69149367 898.70003412 304.93680078 892.46035329 298.14104009 886.25713849 C297.1224629 885.32262184 296.10423957 884.38771937 295.08635259 883.45245099 C289.65287399 878.46055034 284.19496619 873.4978414 278.70354009 868.56963849 C275.83503564 865.98098814 272.98631027 863.37124741 270.14104009 860.75713849 C264.83980934 855.88769745 259.49911325 851.06389866 254.14104009 846.25713849 C252.47411361 844.75742721 250.8074486 843.25742528 249.14104009 841.75713849 C248.31604009 841.01463849 247.49104009 840.27213849 246.64104009 839.50713849 C244.14104009 837.25713849 241.64104009 835.00713849 239.14104009 832.75713849 C238.31861821 832.01721662 237.49619634 831.27729474 236.64885259 830.51495099 C234.95511114 828.99005605 233.2624284 827.46398447 231.57072759 825.93682599 C225.45898645 820.42317573 219.34452972 814.91681696 213.01701665 809.65069318 C212.06794438 808.86082013 211.11887212 808.07094708 210.14104009 807.25713849 C215.39028452 817.85817562 220.76929871 828.37790519 226.32854009 838.81963849 C226.8783756 839.85453412 226.8783756 839.85453412 227.4393189 840.91033673 C232.59254298 850.60270326 237.87558707 860.20751483 243.32731938 869.73589826 C247.5678238 877.17143863 251.62195282 884.70049297 255.64104009 892.25713849 C260.70931495 901.7816549 265.88788089 911.2324258 271.22917485 920.60699201 C275.40522884 927.93718453 279.49919846 935.31025532 283.57854009 942.69463849 C288.87914349 952.2755063 294.31956479 961.76111579 299.8712647 971.1983006 C304.24367499 978.65552894 308.46470098 986.18860023 312.64104009 993.75713849 C318.48293688 1004.33804821 324.49091568 1014.80708284 330.60979009 1025.22979474 C334.32152021 1031.55237074 337.98340285 1037.90316007 341.64104009 1044.25713849 C348.76225973 1056.61718801 355.93780332 1068.94473688 363.14104009 1081.25713849 C363.84793205 1082.46610914 364.55479966 1083.67509403 365.26164556 1084.88409162 C367.12516402 1088.07115226 368.98981979 1091.25754533 370.85521245 1094.44350934 C371.56976842 1095.66409165 372.28409545 1096.88480801 372.99815679 1098.10567975 C377.19862568 1105.28616516 381.43949826 1112.44013862 385.72693181 1119.56899762 C388.36011338 1123.94915896 390.97553908 1128.33944792 393.57854009 1132.73760724 C394.13104184 1133.67096654 394.13104184 1133.67096654 394.69470525 1134.62318158 C395.45215627 1135.90281343 396.20959734 1137.18245116 396.96702886 1138.46209455 C405.21966572 1152.39826042 413.57014281 1166.27166072 422.00046086 1180.10093427 C424.47914688 1184.16758006 426.95062012 1188.23854406 429.41838384 1192.31182599 C438.27088975 1206.92127593 447.18515971 1221.4913916 456.15275884 1236.03057599 C458.16234693 1239.29171502 460.16792991 1242.55528401 462.17229009 1245.81963849 C470.48093992 1259.34834035 478.85215607 1272.83596762 487.28215337 1286.28936505 C490.40568419 1291.27618416 493.52295897 1296.26691086 496.64104009 1301.25713849 C497.56819829 1302.7402049 497.56819829 1302.7402049 498.51408696 1304.25323224 C501.65427325 1309.27622053 504.79226508 1314.30055738 507.92619634 1319.32745099 C515.69129994 1331.77768424 523.52124385 1344.18411335 531.41594243 1356.55254865 C533.7104328 1360.14982636 535.9991316 1363.75077258 538.28801274 1367.35162091 C548.77959134 1383.85384534 559.28476634 1400.34833564 569.93449712 1416.74908185 C572.55479242 1420.7893864 575.15405567 1424.8423559 577.73869634 1428.90557599 C585.25739366 1440.71811761 592.88917516 1452.43659879 600.68690801 1464.06582379 C604.9771555 1470.46679578 609.23103685 1476.87875347 613.26604009 1483.44463849 C617.6560387 1490.57594529 622.28845917 1497.53182655 626.95134282 1504.48711896 C631.5329847 1511.32885849 636.08048923 1518.1918804 640.60197759 1525.07354474 C641.47019139 1526.3947482 641.47019139 1526.3947482 642.35594487 1527.74264264 C642.94760442 1528.64300244 643.53926396 1529.54336225 644.14885259 1530.47100568 C658.50260368 1552.31304548 673.0376138 1574.02620252 687.68962407 1595.66914105 C691.19429563 1600.84855132 694.67287161 1606.0445756 698.13542485 1611.25225568 C702.46086382 1617.73277945 706.83606097 1624.17990764 711.20354009 1630.63213849 C711.70826848 1631.37803235 712.21299687 1632.12392621 712.73302007 1632.89242291 C721.17435925 1645.36649834 729.63908289 1657.82427637 738.14104009 1670.25713849 C738.97055181 1671.47046857 738.97055181 1671.47046857 739.81682134 1672.70831037 C742.53420073 1676.68255728 745.25288631 1680.65590515 747.97307134 1684.62823224 C750.07752797 1687.70178695 752.17891486 1690.77740478 754.27775884 1693.85479474 C760.86468371 1703.50741558 767.51148202 1713.1163564 774.19450688 1722.70269513 C778.41583707 1728.76264913 782.60583857 1734.8425839 786.76604009 1740.94463849 C791.69146948 1748.1658766 796.679237 1755.34100486 801.70012212 1762.49615216 C806.19719903 1768.90488928 810.67328491 1775.32792982 815.14104009 1781.75713849 C821.87858308 1791.44978677 828.63996175 1801.12546278 835.41447759 1810.79229474 C837.17874029 1813.31095936 838.94137235 1815.83075777 840.70354009 1818.35088849 C855.01826142 1838.82880202 855.01826142 1838.82880202 869.57854009 1859.13213849 C874.06632434 1865.30887381 878.42245359 1871.56058194 882.70354009 1877.88213849 C887.16550933 1884.46799709 891.79884518 1890.87398626 896.62175298 1897.19903302 C900.46603684 1902.27386616 904.0766517 1907.4827963 907.64104009 1912.75713849 C912.15038011 1919.42696653 916.81759618 1925.92817877 921.68962407 1932.33697248 C925.81863806 1937.7822669 929.77054531 1943.33872012 933.68522954 1948.93951154 C937.63252732 1954.57598887 941.69197268 1960.12270441 945.84050298 1965.61285138 C949.14104009 1970.03989346 949.14104009 1970.03989346 949.14104009 1972.25713849 C942.24927455 1970.15079094 935.81216773 1967.37580424 929.26604009 1964.38213849 C890.08621142 1946.85967952 848.71325567 1933.72653545 807.14104009 1923.25713849 C806.46728337 1923.08740521 805.79352666 1922.91767194 805.09935308 1922.74279523 C759.2173135 1911.23588897 712.34079726 1904.22815987 665.14104009 1901.25713849 C664.41554967 1901.2098158 663.69005925 1901.1624931 662.94258428 1901.11373639 C647.49440305 1900.13079303 632.05370169 1900.05635773 616.57854009 1900.06963849 C615.27468358 1900.07024274 613.97082707 1900.07084699 612.62745976 1900.07146955 C592.05894266 1900.09728507 571.63500265 1900.49879286 551.14104009 1902.25713849 C550.3859113 1902.32030255 549.63078252 1902.38346662 548.85277104 1902.44854474 C471.84290077 1908.90742432 396.52480207 1925.20129714 323.14104009 1949.25713849 C322.05855992 1949.61195294 322.05855992 1949.61195294 320.95421147 1949.97393537 C258.36659095 1970.54512048 196.73042154 1996.57199559 138.72697759 2027.86846662 C135.69528816 2029.49651131 132.65270967 2031.10330882 129.60979009 2032.71026349 C115.32272577 2040.27644312 101.24691233 2048.13083469 87.33537602 2056.37237287 C83.85428324 2058.42633467 80.36225798 2060.46075417 76.86760259 2062.49151349 C63.97871701 2069.98785893 51.17483224 2077.57417324 38.63908696 2085.6526463 C35.79792862 2087.47751853 32.94646469 2089.28566941 30.09416509 2091.09307599 C18.11590689 2098.69659451 6.26093813 2106.43731311 -5.38679194 2114.53838849 C-8.09132234 2116.41868614 -10.80119886 2118.29113528 -13.51130366 2120.16338849 C-25.39740117 2128.38797613 -37.18804305 2136.73017126 -48.85895991 2145.25713849 C-49.62659663 2145.81610822 -50.39423335 2146.37507794 -51.18513179 2146.95098615 C-62.21454269 2154.98741188 -73.07543746 2163.21336268 -83.80573726 2171.6448338 C-85.71232654 2173.14199381 -87.62271289 2174.63412233 -89.53474116 2176.12432599 C-101.30209431 2185.30912418 -112.91209355 2194.68809331 -124.27277827 2204.37212873 C-127.63784274 2207.23796592 -131.04543545 2210.04255579 -134.48395991 2212.81963849 C-140.14348631 2217.4206084 -145.5100625 2222.30139021 -150.85895991 2227.25713849 C-146.51679532 2234.43177469 -141.75804127 2241.14040028 -136.59333491 2247.74151349 C-133.64247955 2251.51466817 -130.78271608 2255.35336753 -127.92145991 2259.19463849 C-122.79494171 2266.05702951 -117.54535339 2272.8121389 -112.22663569 2279.52618146 C-110.82651888 2281.2981965 -109.4335284 2283.07559632 -108.04255366 2284.85479474 C-102.40414141 2292.06480812 -96.67858625 2299.19194464 -90.85895991 2306.25713849 C-89.4005165 2308.04871556 -87.94218474 2309.84038351 -86.48395991 2311.63213849 C-82.6895907 2316.27263882 -78.82962537 2320.85335983 -74.94538569 2325.41851544 C-72.03354375 2328.84717122 -69.18150758 2332.31665522 -66.35895991 2335.81963849 C-62.23440001 2340.890334 -57.86279392 2345.68906328 -53.42145991 2350.47979474 C-50.75781855 2353.3667597 -48.16747644 2356.30637183 -45.59333491 2359.27276349 C-42.81730561 2362.44894117 -39.9865965 2365.57543679 -37.15974116 2368.70635724 C-35.69485882 2370.33041186 -34.2335216 2371.95767634 -32.77692866 2373.58916974 C-23.79340277 2383.63938516 -14.71194915 2393.66009962 -5.01911616 2403.03448224 C-3.24035346 2404.86471005 -1.59819424 2406.72298456 0.05510259 2408.66338849 C5.01884634 2414.37642654 10.40715391 2419.67249782 15.76530766 2425.01177716 C17.57464941 2426.81575934 19.37858328 2428.62502514 21.18205571 2430.43487287 C26.48195697 2435.73751163 31.78181561 2440.96275744 37.49284673 2445.82720685 C40.01214209 2448.01288497 42.31078821 2450.37073596 44.64104009 2452.75713849 C48.23025628 2456.3948742 51.89433482 2459.86583833 55.78166509 2463.18291974 C59.13785969 2466.13348155 62.38286204 2469.19914595 65.64104009 2472.25713849 C70.72806104 2477.02262658 75.83756676 2481.73215666 81.14104009 2486.25713849 C82.17381065 2487.14360277 83.20633937 2488.03034884 84.23869634 2488.91729474 C86.63331273 2490.9736407 89.03088747 2493.02647317 91.43010259 2495.07745099 C93.84925388 2497.14684547 96.26042742 2499.22491157 98.66447759 2501.31182599 C104.88064639 2506.69719419 111.17651696 2511.92713515 117.67570806 2516.96783185 C122.45023749 2520.68098644 127.11312634 2524.51813422 131.76604009 2528.38213849 C138.4157345 2533.89053364 145.18678357 2539.13667956 152.14104009 2544.25713849 C153.3622788 2545.17483232 154.58225998 2546.09420124 155.80119634 2547.01495099 C177.97688824 2563.7631423 200.5737811 2580.05446177 224.05314946 2594.93291974 C226.21691081 2596.30525856 228.37444311 2597.68704671 230.53166509 2599.06963849 C302.18097817 2644.83279765 378.43868053 2682.20768927 642.14104009 2744.25713849 C642.80033513 2744.30827802 643.45963017 2744.35941754 644.13890386 2744.41210675 C725.96669503 2750.73035261 808.83398624 2743.55871189 964.14104009 2703.25713849 C964.79685063 2703.04355695 965.45266118 2702.8299754 966.12834477 2702.60992169 C1028.00991522 2682.43766575 1088.46597373 2655.22893956 1145.14104009 2623.25713849 C1146.22014653 2622.65047345 1147.29925298 2622.04380841 1148.41105962 2621.41875958 C1164.51491724 2612.34778498 1180.44786796 2603.02568458 1196.14104009 2593.25713849 C1196.99697759 2592.72507794 1197.85291509 2592.1930174 1198.73479009 2591.6448338 C1223.34888203 2576.28916745 1247.53242292 2560.11667905 1271.14104009 2543.25713849 C1271.87709477 2542.73426251 1272.61314946 2542.21138654 1273.37150884 2541.67266583 C1284.11054729 2534.03773426 1294.62668834 2526.13281867 1305.08635259 2518.12041974 C1309.58231885 2514.67747847 1314.10430399 2511.27109921 1318.64104009 2507.88213849 C1325.52411682 2502.73767853 1332.34557375 2497.51664326 1339.14104009 2492.25713849 C1343.26953228 2496.17352466 1346.6701259 2500.39606915 1350.07854009 2504.94463849 C1351.23410299 2506.47120052 1352.39037657 2507.99722478 1353.54729009 2509.52276349 C1354.14025884 2510.30586896 1354.73322759 2511.08897443 1355.34416509 2511.89581037 C1358.22707854 2515.68433467 1361.15143723 2519.44021254 1364.07854009 2523.19463849 C1364.94515264 2524.30717999 1364.94515264 2524.30717999 1365.82927251 2525.44219708 C1367.00505772 2526.95133607 1368.18108387 2528.46028736 1369.35734868 2529.96905255 C1372.37057426 2533.83436191 1375.38124541 2537.70165722 1378.39104009 2541.56963849 C1379.27263799 2542.70260358 1379.27263799 2542.70260358 1380.17204595 2543.85845685 C1383.50786109 2548.14830104 1386.83141678 2552.44705715 1390.14104009 2556.75713849 C1398.6773676 2567.87258631 1407.29519806 2578.92501766 1415.96379399 2589.93755841 C1422.66558743 2598.45771504 1429.30264489 2607.02851976 1435.95256352 2615.58916974 C1437.74425015 2617.89539698 1439.53629519 2620.20134508 1441.32854009 2622.50713849 C1442.19297734 2623.61955914 1442.19297734 2623.61955914 1443.07487798 2624.75445294 C1447.28267229 2630.16498659 1451.5116759 2635.55851505 1455.76677251 2640.93194318 C1461.14627322 2647.74743105 1461.14627322 2647.74743105 1461.12150884 2650.15948224 C1459.66727498 2653.27073157 1457.17072848 2654.8655553 1454.45354009 2656.81963849 C1453.25888285 2657.70809232 1452.06489434 2658.59744593 1450.87150884 2659.48760724 C1449.94410893 2660.17282453 1449.94410893 2660.17282453 1448.99797368 2660.87188458 C1446.04654473 2663.07362109 1443.15615738 2665.35085614 1440.26604009 2667.63213849 C1439.68829839 2668.08661359 1439.11055669 2668.54108869 1438.51530766 2669.00933576 C1433.57125075 2672.90343595 1428.65926512 2676.83718338 1423.74919438 2680.77398419 C1417.82232312 2685.52208111 1411.85319375 2690.21513546 1405.87492681 2694.89825177 C1402.96137182 2697.18167152 1400.05139816 2699.46964652 1397.14104009 2701.75713849 C1395.97439036 2702.67382672 1394.8077237 2703.59049339 1393.64104009 2704.50713849 C1393.06354009 2704.96088849 1392.48604009 2705.41463849 1391.89104009 2705.88213849 C1386.64104007 2710.00713851 1386.64104007 2710.00713851 1384.89128423 2711.38189435 C1383.72373599 2712.29928858 1382.5562556 2713.21676916 1381.38884282 2714.13433576 C1378.48621218 2716.41558094 1375.58244735 2718.69535063 1372.67619634 2720.97198224 C1366.63973079 2725.70326605 1360.62480076 2730.45932058 1354.64104009 2735.25713849 C1348.08541008 2740.51348492 1341.48965513 2745.71655909 1334.87492681 2750.89825177 C1331.96137182 2753.18167152 1329.05139816 2755.46964652 1326.14104009 2757.75713849 C1324.97439036 2758.67382672 1323.8077237 2759.59049339 1322.64104009 2760.50713849 C1322.06354009 2760.96088849 1321.48604009 2761.41463849 1320.89104009 2761.88213849 C1315.64104009 2766.00713849 1315.64104009 2766.00713849 1313.89128423 2767.38189435 C1312.72373599 2768.29928858 1311.5562556 2769.21676916 1310.38884282 2770.13433576 C1307.48621218 2772.41558094 1304.58244735 2774.69535063 1301.67619634 2776.97198224 C1295.63973079 2781.70326605 1289.62480076 2786.45932058 1283.64104009 2791.25713849 C1277.08541008 2796.51348492 1270.48965513 2801.71655909 1263.87492681 2806.89825177 C1260.96137182 2809.18167152 1258.05139816 2811.46964652 1255.14104009 2813.75713849 C1253.97439036 2814.67382672 1252.8077237 2815.59049339 1251.64104009 2816.50713849 C1251.06354009 2816.96088849 1250.48604009 2817.41463849 1249.89104009 2817.88213849 C1244.64104008 2822.0071385 1244.64104008 2822.0071385 1242.89128423 2823.38189435 C1241.72373599 2824.29928858 1240.5562556 2825.21676916 1239.38884282 2826.13433576 C1236.48621218 2828.41558094 1233.58244735 2830.69535063 1230.67619634 2832.97198224 C1225.32408911 2837.16714191 1219.98461683 2841.37542429 1214.68596196 2845.63799787 C1208.754323 2850.40950555 1202.7675999 2855.09241327 1196.70354009 2859.69463849 C1190.35274519 2864.51725984 1184.12548719 2869.46826408 1177.95427251 2874.51812482 C1171.98602543 2879.39949083 1165.93535381 2884.16890946 1159.85881352 2888.91436505 C1156.94832381 2891.18947782 1154.04509512 2893.47382219 1151.14104009 2895.75713849 C1149.9744073 2896.67384827 1148.80774065 2897.59051497 1147.64104009 2898.50713849 C1147.06354009 2898.96088849 1146.48604009 2899.41463849 1145.89104009 2899.88213849 C1140.64104008 2904.0071385 1140.64104008 2904.0071385 1138.89128423 2905.38189435 C1137.72373599 2906.29928858 1136.5562556 2907.21676916 1135.38884282 2908.13433576 C1132.48621218 2910.41558094 1129.58244735 2912.69535063 1126.67619634 2914.97198224 C1120.63973079 2919.70326605 1114.62480076 2924.45932058 1108.64104009 2929.25713849 C1102.08541008 2934.51348492 1095.48965513 2939.71655909 1088.87492681 2944.89825177 C1085.96137182 2947.18167152 1083.05139816 2949.46964652 1080.14104009 2951.75713849 C1078.97439036 2952.67382672 1077.8077237 2953.59049339 1076.64104009 2954.50713849 C1076.06354009 2954.96088849 1075.48604009 2955.41463849 1074.89104009 2955.88213849 C1069.64104008 2960.00713849 1069.64104008 2960.00713849 1067.89128423 2961.38189435 C1066.72373599 2962.29928858 1065.5562556 2963.21676916 1064.38884282 2964.13433576 C1061.48621218 2966.41558094 1058.58244735 2968.69535063 1055.67619634 2970.97198224 C1049.63973079 2975.70326605 1043.62480076 2980.45932058 1037.64104009 2985.25713849 C1031.08541008 2990.51348492 1024.48965513 2995.71655909 1017.87492681 3000.89825177 C1014.96137182 3003.18167152 1012.05139816 3005.46964652 1009.14104009 3007.75713849 C1007.97439036 3008.67382672 1006.8077237 3009.59049339 1005.64104009 3010.50713849 C1005.06354009 3010.96088849 1004.48604009 3011.41463849 1003.89104009 3011.88213849 C998.64104009 3016.00713849 998.64104009 3016.00713849 996.89128423 3017.38189435 C995.72373599 3018.29928858 994.5562556 3019.21676916 993.38884282 3020.13433576 C990.48621218 3022.41558094 987.58244735 3024.69535063 984.67619634 3026.97198224 C978.63973079 3031.70326605 972.62480076 3036.45932058 966.64104009 3041.25713849 C960.08541008 3046.51348492 953.48965513 3051.71655909 946.87492681 3056.89825177 C943.96137182 3059.18167152 941.05139816 3061.46964652 938.14104009 3063.75713849 C936.97439036 3064.67382672 935.8077237 3065.59049339 934.64104009 3066.50713849 C934.06354009 3066.96088849 933.48604009 3067.41463849 932.89104009 3067.88213849 C927.64104009 3072.00713849 927.64104009 3072.00713849 925.89128423 3073.38189435 C924.72373599 3074.29928858 923.5562556 3075.21676916 922.38884282 3076.13433576 C919.48621218 3078.41558094 916.58244735 3080.69535063 913.67619634 3082.97198224 C908.32408911 3087.16714191 902.98461683 3091.37542429 897.68596196 3095.63799787 C891.754323 3100.40950555 885.7675999 3105.09241327 879.70354009 3109.69463849 C873.35274519 3114.51725984 867.12548719 3119.46826408 860.95427251 3124.51812482 C854.98602543 3129.39949083 848.93535381 3134.16890946 842.85881352 3138.91436505 C839.94832381 3141.18947782 837.04509512 3143.47382219 834.14104009 3145.75713849 C832.9744073 3146.67384827 831.80774065 3147.59051497 830.64104009 3148.50713849 C830.06354009 3148.96088849 829.48604009 3149.41463849 828.89104009 3149.88213849 C823.64104007 3154.0071385 823.64104007 3154.0071385 821.89128423 3155.38189435 C820.72373599 3156.29928858 819.5562556 3157.21676916 818.38884282 3158.13433576 C815.48621218 3160.41558094 812.58244735 3162.69535063 809.67619634 3164.97198224 C803.63973079 3169.70326605 797.62480076 3174.45932058 791.64104009 3179.25713849 C785.08541008 3184.51348492 778.48965513 3189.71655909 771.87492681 3194.89825177 C768.96137182 3197.18167152 766.05139816 3199.46964652 763.14104009 3201.75713849 C761.97439036 3202.67382672 760.8077237 3203.59049339 759.64104009 3204.50713849 C759.06354009 3204.96088849 758.48604009 3205.41463849 757.89104009 3205.88213849 C752.6410401 3210.00713848 752.6410401 3210.00713848 750.89128423 3211.38189435 C749.72373599 3212.29928858 748.5562556 3213.21676916 747.38884282 3214.13433576 C744.48621218 3216.41558094 741.58244735 3218.69535063 738.67619634 3220.97198224 C732.63973079 3225.70326605 726.62480076 3230.45932058 720.64104009 3235.25713849 C714.08541008 3240.51348492 707.48965513 3245.71655909 700.87492681 3250.89825177 C697.96137182 3253.18167152 695.05139816 3255.46964652 692.14104009 3257.75713849 C690.97439036 3258.67382672 689.8077237 3259.59049339 688.64104009 3260.50713849 C688.06354009 3260.96088849 687.48604009 3261.41463849 686.89104009 3261.88213849 C681.64104009 3266.00713849 681.64104009 3266.00713849 679.89128423 3267.38189435 C678.72373599 3268.29928858 677.5562556 3269.21676916 676.38884282 3270.13433576 C673.48621218 3272.41558094 670.58244735 3274.69535063 667.67619634 3276.97198224 C662.32408911 3281.16714191 656.98461683 3285.37542429 651.68596196 3289.63799787 C645.754323 3294.40950555 639.7675999 3299.09241327 633.70354009 3303.69463849 C627.35274519 3308.51725984 621.12548719 3313.46826408 614.95427251 3318.51812482 C608.98602543 3323.39949083 602.93535381 3328.16890946 596.85881352 3332.91436505 C593.94832381 3335.18947782 591.04509512 3337.47382219 588.14104009 3339.75713849 C586.9744073 3340.67384827 585.80774065 3341.59051497 584.64104009 3342.50713849 C584.06354009 3342.96088849 583.48604009 3343.41463849 582.89104009 3343.88213849 C577.64104007 3348.00713851 577.64104007 3348.00713851 575.89128423 3349.38189435 C574.72373599 3350.29928858 573.5562556 3351.21676916 572.38884282 3352.13433576 C569.48621218 3354.41558094 566.58244735 3356.69535063 563.67619634 3358.97198224 C557.63973079 3363.70326605 551.62480076 3368.45932058 545.64104009 3373.25713849 C539.08541008 3378.51348492 532.48965513 3383.71655909 525.87492681 3388.89825177 C522.96137182 3391.18167152 520.05139816 3393.46964652 517.14104009 3395.75713849 C515.97439036 3396.67382672 514.8077237 3397.59049339 513.64104009 3398.50713849 C513.06354009 3398.96088849 512.48604009 3399.41463849 511.89104009 3399.88213849 C506.64104011 3404.00713847 506.64104011 3404.00713847 504.89128423 3405.38189435 C503.72373599 3406.29928858 502.5562556 3407.21676916 501.38884282 3408.13433576 C498.48621218 3410.41558094 495.58244735 3412.69535063 492.67619634 3414.97198224 C486.63973079 3419.70326605 480.62480076 3424.45932058 474.64104009 3429.25713849 C468.08541008 3434.51348492 461.48965513 3439.71655909 454.87492681 3444.89825177 C451.96137182 3447.18167152 449.05139816 3449.46964652 446.14104009 3451.75713849 C444.97439036 3452.67382672 443.8077237 3453.59049339 442.64104009 3454.50713849 C442.06354009 3454.96088849 441.48604009 3455.41463849 440.89104009 3455.88213849 C435.6410401 3460.00713848 435.6410401 3460.00713848 433.89128423 3461.38189435 C432.72373599 3462.29928858 431.5562556 3463.21676916 430.38884282 3464.13433576 C427.48621218 3466.41558094 424.58244735 3468.69535063 421.67619634 3470.97198224 C420.51859937 3471.87947708 419.36104726 3472.78702914 418.20354009 3473.69463849 C417.35203374 3474.36160748 417.35203374 3474.36160748 416.48332524 3475.0420506 C413.32585381 3477.52089203 410.18743613 3480.02107831 407.06682134 3482.54620099 C406.39062749 3483.09219953 405.71443364 3483.63819806 405.01774907 3484.20074201 C403.71385041 3485.25527939 402.41244599 3486.31291068 401.11394048 3487.37408185 C400.52218022 3487.8524046 399.93041997 3488.33072736 399.32072759 3488.82354474 C398.80236333 3489.24579328 398.28399907 3489.66804181 397.74992681 3490.10308576 C395.96469547 3491.38363029 394.12612512 3492.32271177 392.14104009 3493.25713849 C378.20017894 3478.41471615 378.20017894 3478.41471615 372.97697759 3472.34307599 C370.41612074 3469.43350672 367.77690464 3466.59869771 365.14104009 3463.75713849 C361.35465669 3459.67419271 357.62336707 3455.55943839 353.98088384 3451.34698224 C351.57433783 3448.61343211 349.10797306 3445.93603147 346.64104009 3443.25713849 C342.99933511 3439.30127127 339.40604446 3435.31152152 335.88322759 3431.24932599 C333.8260361 3428.89693214 331.73507094 3426.57678883 329.64104009 3424.25713849 C324.81982734 3418.90923863 320.06209982 3413.51411634 315.39104009 3408.03448224 C310.65024686 3402.4759137 305.90017792 3396.94775875 300.95354009 3391.56963849 C297.74458964 3388.0745396 294.68038172 3384.51430009 291.70354009 3380.81963849 C288.48160907 3376.82489863 285.13448514 3373.011595 281.64104009 3369.25713849 C277.35148896 3364.64709513 273.33693337 3359.87930893 269.38713384 3354.97198224 C267.05273419 3352.15040354 264.6211341 3349.45123137 262.14104009 3346.75713849 C258.12498162 3342.38944357 254.34718554 3337.88864613 250.62150884 3333.27276349 C247.6913552 3329.71043497 244.67338042 3326.23245888 241.64104009 3322.75713849 C237.14338358 3317.59878373 232.75107954 3312.37556012 228.44182134 3307.05791974 C225.76045003 3303.79383955 223.02037682 3300.58466223 220.26604009 3297.38213849 C219.75968022 3296.79327863 219.25332036 3296.20441876 218.73161626 3295.59771466 C217.70761565 3294.4070352 216.68360848 3293.21636138 215.65959477 3292.02569318 C209.39530906 3284.73011669 203.20666096 3277.38915173 197.23479009 3269.85088849 C194.75292745 3266.77634224 192.20248126 3263.7654137 189.64104009 3260.75713849 C185.7050049 3256.13259971 181.85693354 3251.45277993 178.08244634 3246.69463849 C175.31475205 3243.21970643 172.49295624 3239.78998564 169.67619634 3236.35479474 C166.17902729 3232.08637627 162.70246101 3227.80120291 159.22478032 3223.51690412 C156.42192851 3220.06399207 153.61685113 3216.61296778 150.80510259 3213.16729474 C145.24058069 3206.34342501 139.72484091 3199.48873768 134.30681157 3192.54790998 C130.78711048 3188.05005421 127.19221156 3183.61719941 123.57854009 3179.19463849 C118.81461699 3173.35935582 114.16828553 3167.45196249 109.59807134 3161.46416974 C106.99701348 3158.0585962 104.35405938 3154.68679176 101.70354009 3151.31963849 C101.24648686 3150.73883527 100.78943364 3150.15803205 100.31853032 3149.55962873 C98.92656725 3147.79171079 97.53393065 3146.02432575 96.14104009 3144.25713849 C90.42807562 3137.00898972 84.7308126 3129.7514699 79.11687016 3122.4260838 C76.11905995 3118.51777561 73.09516513 3114.63050589 70.06389165 3110.74810529 C64.50323758 3103.62361165 59.00718581 3096.45837439 53.60148931 3089.21563458 C50.06237533 3084.47618766 46.48819956 3079.76516727 42.89104009 3075.06963849 C42.360752 3074.37692853 41.83046391 3073.68421857 41.28410649 3072.9705174 C38.91372994 3069.87490259 36.54230214 3066.78010048 34.16887212 3063.68682599 C20.17083046 3045.43516227 20.17083046 3045.43516227 13.71965337 3036.28277326 C10.6687501 3031.96267892 7.51551638 3027.72764534 4.32854009 3023.50713849 C-0.48751997 3017.12489261 -5.19491788 3010.67168211 -9.86213374 3004.17999005 C-13.82258782 2998.67684537 -17.82893017 2993.20949887 -21.85895991 2987.75713849 C-32.20749455 2973.74481026 -42.36404078 2959.60178708 -52.38386226 2945.35284162 C-53.84830507 2943.27227606 -55.31590183 2941.19397707 -56.78474116 2939.11651349 C-63.31150546 2929.88516906 -69.80654259 2920.63199898 -76.28474116 2911.36651349 C-78.65357437 2907.97858378 -81.02607792 2904.59327549 -83.40192866 2901.21026349 C-91.30654705 2889.95004529 -99.12122481 2878.63262476 -106.85895991 2867.25713849 C-107.50300776 2866.31096662 -108.14705562 2865.36479474 -108.81062007 2864.38995099 C-113.9885388 2856.78018331 -119.15314859 2849.16146861 -124.31324458 2841.53960919 C-126.00376614 2839.04331129 -127.69525911 2836.54767311 -129.38679194 2834.05206037 C-132.59285179 2829.3212137 -135.79542571 2824.58802052 -138.99616694 2819.85357404 C-140.26164185 2817.98264176 -141.5280531 2816.11234241 -142.79548335 2814.24273419 C-149.62008051 2804.17364155 -156.33834034 2794.06805212 -162.70978999 2783.70513654 C-164.88308137 2780.1841004 -167.17246121 2776.75148938 -169.48395991 2773.31963849 C-176.80270004 2762.42460588 -183.80789441 2751.32642483 -190.85895991 2740.25713849 C-192.09853108 2738.31312031 -193.33811394 2736.3691096 -194.57770991 2734.42510724 C-198.01018791 2729.0392056 -201.43634976 2723.64931548 -204.85895991 2718.25713849 C-205.37410151 2717.44583478 -205.88924312 2716.63453107 -206.41999507 2715.7986424 C-214.32485297 2703.34119539 -222.11510994 2690.81519608 -229.85895991 2678.25713849 C-230.47255366 2677.2632713 -231.08614741 2676.26940412 -231.71833491 2675.24541974 C-247.04314433 2650.4204744 -262.19994283 2625.51640706 -276.90081477 2600.31664777 C-280.07067231 2594.8863685 -283.27590671 2589.47740041 -286.48395991 2584.06963849 C-298.20129573 2564.28153936 -309.5953894 2544.30636143 -320.85895991 2524.25713849 C-321.41406245 2523.26923322 -321.96916499 2522.28132794 -322.54108882 2521.26348615 C-326.05176223 2515.01194482 -329.55396733 2508.75571619 -333.04987788 2502.49590802 C-334.26419799 2500.32193088 -335.47937893 2498.14843437 -336.69538569 2495.97540021 C-345.0096302 2481.11305895 -353.16831919 2466.17561006 -361.17927241 2451.14776349 C-363.55484005 2446.69154351 -365.94414172 2442.24333025 -368.35114741 2437.80401349 C-375.38814278 2424.82136942 -382.26545832 2411.76680998 -389.00324702 2398.62701154 C-389.6269656 2397.41124145 -390.2507454 2396.19550278 -390.87458491 2394.97979474 C-391.19450404 2394.35592877 -391.51442317 2393.73206281 -391.84403682 2393.08929181 C-393.50985576 2389.84927115 -395.19230533 2386.61951933 -396.90656734 2383.40484357 C-405.26705092 2367.71184756 -413.18402231 2351.79437204 -421.13459468 2335.89117169 C-422.81770471 2332.52487066 -424.50360051 2329.1599899 -426.19221187 2325.79644513 C-435.4171447 2307.42021757 -444.5216018 2289.01788244 -453.06721187 2270.3142674 C-456.02439475 2263.85131188 -459.12176724 2257.45906916 -462.23395991 2251.06963849 C-468.67083003 2237.78942671 -474.79283091 2224.37580628 -480.85261226 2210.92059064 C-482.87393035 2206.43355296 -484.90698472 2201.95207686 -486.94950557 2197.47465253 C-513.06234745 2140.21232122 -537.37837272 2082.04059126 -559.85895991 2023.25713849 C-560.16879817 2022.44794965 -560.47863643 2021.63876081 -560.79786372 2020.80505109 C-592.43196807 1938.13285461 -619.62795456 1853.94307926 -641.85895991 1768.25713849 C-642.1445074 1767.15984418 -642.43005488 1766.06254987 -642.72425532 1764.93200421 C-665.69773754 1676.5696107 -683.36903266 1586.84995609 -719.85895991 1128.25713849 C-719.85035945 1127.28629315 -719.84175899 1126.31544782 -719.8328979 1125.31518292 C-719.04398169 1040.70948114 -714.08888957 956.16516124 -663.85895991 605.25713849 C-663.62026179 604.07438336 -663.38156367 602.89162824 -663.13563228 601.67303205 C-641.64712268 495.40852862 -613.08631279 390.73360592 -510.10895991 101.63213849 C-509.68997432 100.63026502 -509.68997432 100.63026502 -509.26252437 99.60815167 C-498.22855295 73.29389673 -482.65450338 52.7506211 -455.95197749 41.08404279 C-444.19749701 36.44011121 -432.0899619 34.53312603 -419.67145991 32.56963849 C-418.62886012 32.4023927 -417.58626033 32.23514691 -416.5120666 32.06283307 C-336.18228925 19.20294477 -255.21987731 10.37479668 -156.1009109 4.13024259 C-154.0772138 4.01256135 -152.05362469 3.89302758 -150.03004146 3.77340436 C-139.97623074 3.18767809 -129.92001561 2.69732901 -119.85895991 2.25713849 C-118.4043517 2.19302022 -118.4043517 2.19302022 -116.92035747 2.12760663 C-77.9337424 0.42595513 -39.01527683 -0.06415007 0 0 Z " fill="#377E63" transform="translate(719.8589599132538,-0.2571384906768799)"/>
<path d="M0 0 C3.71563534 1.23854511 4.59458591 2.69017178 7 5.75 C8.19109375 7.24273438 8.19109375 7.24273438 9.40625 8.765625 C10.03853516 9.55936523 10.03853516 9.55936523 10.68359375 10.36914062 C12.90557836 13.12189604 15.20472407 15.80833662 17.5 18.5 C20.85515216 22.44590915 24.17223612 26.41644267 27.4375 30.4375 C30.89274151 34.68392382 34.42697834 38.85296294 38 43 C42.31928956 48.01319488 46.55097119 53.0853732 50.72265625 58.22265625 C53.28203972 61.34396267 55.88589916 64.42453424 58.5 67.5 C61.85447127 71.44650481 65.17221829 75.41642072 68.4375 79.4375 C71.89274151 83.68392382 75.42697834 87.85296294 79 92 C83.31928956 97.01319488 87.55097119 102.0853732 91.72265625 107.22265625 C94.28204054 110.34396367 96.88593791 113.4245003 99.5 116.5 C102.87283589 120.46903543 106.21176645 124.46017021 109.5 128.5 C114.58175677 134.73916756 119.78894106 140.86891962 125 147 C130.9600827 154.01234558 136.87758795 161.04960805 142.6875 168.1875 C145.7243277 171.8809391 148.81960955 175.52298486 151.91625977 179.16625977 C154.7954532 182.55954109 157.63204237 185.98267786 160.4375 189.4375 C163.89274151 193.68392382 167.42697834 197.85296294 171 202 C175.31928956 207.01319488 179.55097119 212.0853732 183.72265625 217.22265625 C186.28204054 220.34396367 188.88593791 223.4245003 191.5 226.5 C194.87283589 230.46903543 198.21176645 234.46017021 201.5 238.5 C206.58175677 244.73916756 211.78894106 250.86891962 217 257 C222.9600827 264.01234558 228.87758795 271.04960805 234.6875 278.1875 C237.7243277 281.8809391 240.81960955 285.52298486 243.91625977 289.16625977 C246.7954532 292.55954109 249.63204237 295.98267786 252.4375 299.4375 C255.89274151 303.68392382 259.42697834 307.85296294 263 312 C267.31928956 317.01319488 271.55097119 322.0853732 275.72265625 327.22265625 C278.28204054 330.34396367 280.88593791 333.4245003 283.5 336.5 C286.87283589 340.46903543 290.21176645 344.46017021 293.5 348.5 C298.58175677 354.73916756 303.78894106 360.86891962 309 367 C314.9600827 374.01234558 320.87758795 381.04960805 326.6875 388.1875 C329.7243277 391.8809391 332.81960955 395.52298486 335.91625977 399.16625977 C338.7954532 402.55954109 341.63204237 405.98267786 344.4375 409.4375 C347.89274151 413.68392382 351.42697834 417.85296294 355 422 C359.31928956 427.01319488 363.55097119 432.0853732 367.72265625 437.22265625 C370.28203972 440.34396267 372.88589916 443.42453424 375.5 446.5 C378.85447127 450.44650481 382.17221829 454.41642072 385.4375 458.4375 C388.89274151 462.68392382 392.42697834 466.85296294 396 471 C400.31928956 476.01319488 404.55097119 481.0853732 408.72265625 486.22265625 C411.28204054 489.34396367 413.88593791 492.4245003 416.5 495.5 C419.87283589 499.46903543 423.21176645 503.46017021 426.5 507.5 C431.58175677 513.73916756 436.78894106 519.86891962 442 526 C447.9600827 533.01234558 453.87758795 540.04960805 459.6875 547.1875 C462.7243277 550.8809391 465.81960955 554.52298486 468.91625977 558.16625977 C471.7954532 561.55954109 474.63204237 564.98267786 477.4375 568.4375 C480.89274151 572.68392382 484.42697834 576.85296294 488 581 C492.31928956 586.01319488 496.55097119 591.0853732 500.72265625 596.22265625 C503.28204054 599.34396367 505.88593791 602.4245003 508.5 605.5 C511.87283589 609.46903543 515.21176645 613.46017021 518.5 617.5 C523.58175677 623.73916756 528.78894106 629.86891962 534 636 C539.9600827 643.01234558 545.87758795 650.04960805 551.6875 657.1875 C554.7243277 660.8809391 557.81960955 664.52298486 560.91625977 668.16625977 C563.7954532 671.55954109 566.63204237 674.98267786 569.4375 678.4375 C572.89274151 682.68392382 576.42697834 686.85296294 580 691 C584.31928956 696.01319488 588.55097119 701.0853732 592.72265625 706.22265625 C595.28204054 709.34396367 597.88593791 712.4245003 600.5 715.5 C603.87283589 719.46903543 607.21176645 723.46017021 610.5 727.5 C615.58175677 733.73916756 620.78894106 739.86891962 626 746 C631.9600827 753.01234558 637.87758795 760.04960805 643.6875 767.1875 C646.7243277 770.8809391 649.81960955 774.52298486 652.91625977 778.16625977 C655.7954532 781.55954109 658.63204237 784.98267786 661.4375 788.4375 C664.89274151 792.68392382 668.42697834 796.85296294 672 801 C676.31928956 806.01319488 680.55097119 811.0853732 684.72265625 816.22265625 C687.28203972 819.34396267 689.88589916 822.42453424 692.5 825.5 C695.85447127 829.44650481 699.17221829 833.41642072 702.4375 837.4375 C705.89274151 841.68392382 709.42697834 845.85296294 713 850 C717.31928956 855.01319488 721.55097119 860.0853732 725.72265625 865.22265625 C728.28204054 868.34396367 730.88593791 871.4245003 733.5 874.5 C736.87283589 878.46903543 740.21176645 882.46017021 743.5 886.5 C748.58175677 892.73916756 753.78894106 898.86891962 759 905 C764.9600827 912.01234558 770.87758795 919.04960805 776.6875 926.1875 C779.7243277 929.8809391 782.81960955 933.52298486 785.91625977 937.16625977 C788.7954532 940.55954109 791.63204237 943.98267786 794.4375 947.4375 C797.89274932 951.68393342 801.42720695 955.85275787 805 960 C809.29027758 964.98459949 813.53157299 970.0000615 817.6640625 975.1171875 C819.37052847 977.22316056 821.09333391 979.30728664 822.8359375 981.3828125 C838.68029165 1000.44024949 850.17787191 1021.84832332 856 1046 C856.16371094 1046.65242676 856.32742188 1047.30485352 856.49609375 1047.97705078 C865.0369493 1083.47277585 858.04958537 1124.02616474 839.64697266 1155.29931641 C833.38106337 1165.50452574 826.42560585 1174.50319185 818 1183 C817.03243144 1184.01426969 816.06631255 1185.02992404 815.1015625 1186.046875 C808.76161748 1192.65142016 802.0290401 1198.3028024 794.6796875 1203.74365234 C791.78983638 1205.90516018 788.95870244 1208.14068879 786.125 1210.375 C785.54637207 1210.83011963 784.96774414 1211.28523926 784.37158203 1211.75415039 C779.42861396 1215.64784566 774.51736299 1219.58073606 769.6081543 1223.5168457 C763.67715346 1228.26825088 757.70341815 1232.9638919 751.72070312 1237.64990234 C750.01440636 1238.98869648 748.31138687 1240.33154523 746.609375 1241.67578125 C743.70796598 1243.9670673 740.79703043 1246.24589535 737.88330078 1248.52148438 C735.88162052 1250.09293572 733.89242801 1251.67952179 731.90234375 1253.265625 C722.73183408 1260.50927356 713.46434099 1266.77824697 703 1272 C702.36803711 1272.31662598 701.73607422 1272.63325195 701.08496094 1272.95947266 C693.0736628 1276.89120918 684.87735914 1279.820723 676.3125 1282.3125 C675.06690308 1282.67637817 675.06690308 1282.67637817 673.79614258 1283.04760742 C661.35934449 1286.48990287 649.08569702 1287.37878215 636.25 1287.3125 C635.49821472 1287.31034485 634.74642944 1287.3081897 633.97186279 1287.30596924 C623.01935663 1287.25556936 612.63377877 1286.84794686 602 1284 C601.24750977 1283.81195801 600.49501953 1283.62391602 599.71972656 1283.43017578 C576.35722147 1277.53088512 556.2454604 1266.64279914 538 1251 C537.1440625 1250.27941406 536.288125 1249.55882813 535.40625 1248.81640625 C529.17042731 1243.41780049 524.04127358 1237.5127334 519 1231 C518.24332031 1230.03578125 517.48664062 1229.0715625 516.70703125 1228.078125 C508.67817396 1217.75717958 500.99086157 1207.17885772 493.26464844 1196.63085938 C485.84168799 1186.49900588 478.31706439 1176.45659682 470.68017578 1166.48486328 C466.63485215 1161.18846947 462.69593368 1155.83897706 458.86621094 1150.38549805 C455.04764934 1144.98588743 451.02324142 1139.74802893 447 1134.5 C442.17329812 1128.20391471 437.42590731 1121.87896455 432.8671875 1115.38671875 C429.0480784 1109.98685258 425.02356378 1104.74844944 421 1099.5 C416.17329812 1093.20391471 411.42590731 1086.87896455 406.8671875 1080.38671875 C403.0480784 1074.98685258 399.02356378 1069.74844944 395 1064.5 C390.17329812 1058.20391471 385.42590731 1051.87896455 380.8671875 1045.38671875 C377.0480784 1039.98685258 373.02356378 1034.74844944 369 1029.5 C364.57509176 1023.7280256 360.17982202 1017.95239784 356 1012 C351.87902189 1006.13332365 347.55020304 1000.43870284 343.1875 994.75 C337.64648251 987.52393429 332.23513497 980.22661542 326.94091797 972.81835938 C322.01074677 965.94922032 316.87554805 959.24403076 311.73046875 952.53515625 C307.66604871 947.22316327 303.70976278 941.85891697 299.86645508 936.38574219 C296.0476725 930.98614653 292.02331344 925.74812288 288 920.5 C283.17329812 914.20391471 278.42590731 907.87896455 273.8671875 901.38671875 C270.0480784 895.98685258 266.02356378 890.74844944 262 885.5 C257.17329812 879.20391471 252.42590731 872.87896455 247.8671875 866.38671875 C244.0480784 860.98685258 240.02356378 855.74844944 236 850.5 C231.17329812 844.20391471 226.42590731 837.87896455 221.8671875 831.38671875 C218.0480784 825.98685258 214.02356378 820.74844944 210 815.5 C205.17329812 809.20391471 200.42590731 802.87896455 195.8671875 796.38671875 C192.0480784 790.98685258 188.02356378 785.74844944 184 780.5 C179.17329812 774.20391471 174.42590731 767.87896455 169.8671875 761.38671875 C166.0480784 755.98685258 162.02356378 750.74844944 158 745.5 C153.17329812 739.20391471 148.42590731 732.87896455 143.8671875 726.38671875 C140.0480784 720.98685258 136.02356378 715.74844944 132 710.5 C127.57509176 704.7280256 123.17982202 698.95239784 119 693 C114.87902189 687.13332365 110.55020304 681.43870284 106.1875 675.75 C100.64648251 668.52393429 95.23513497 661.22661542 89.94091797 653.81835938 C85.01074677 646.94922032 79.87554805 640.24403076 74.73046875 633.53515625 C70.66604871 628.22316327 66.70976278 622.85891697 62.86645508 617.38574219 C59.0476725 611.98614653 55.02331344 606.74812288 51 601.5 C46.17329812 595.20391471 41.42590731 588.87896455 36.8671875 582.38671875 C33.0480784 576.98685258 29.02356378 571.74844944 25 566.5 C20.17329812 560.20391471 15.42590731 553.87896455 10.8671875 547.38671875 C7.0480784 541.98685258 3.02356378 536.74844944 -1 531.5 C-5.82670188 525.20391471 -10.57409269 518.87896455 -15.1328125 512.38671875 C-18.9519216 506.98685258 -22.97643622 501.74844944 -27 496.5 C-31.82670188 490.20391471 -36.57409269 483.87896455 -41.1328125 477.38671875 C-44.9519216 471.98685258 -48.97643622 466.74844944 -53 461.5 C-57.82670188 455.20391471 -62.57409269 448.87896455 -67.1328125 442.38671875 C-70.9519216 436.98685258 -74.97643622 431.74844944 -79 426.5 C-83.82670188 420.20391471 -88.57409269 413.87896455 -93.1328125 407.38671875 C-96.9519216 401.98685258 -100.97643622 396.74844944 -105 391.5 C-109.42490824 385.7280256 -113.82017798 379.95239784 -118 374 C-122.12097811 368.13332365 -126.44979696 362.43870284 -130.8125 356.75 C-136.35351749 349.52393429 -141.76486503 342.22661542 -147.05908203 334.81835938 C-151.98925323 327.94922032 -157.12445195 321.24403076 -162.26953125 314.53515625 C-166.33395129 309.22316327 -170.29023722 303.85891697 -174.13354492 298.38574219 C-177.9523275 292.98614653 -181.97668656 287.74812288 -186 282.5 C-190.82670188 276.20391471 -195.57409269 269.87896455 -200.1328125 263.38671875 C-203.9519216 257.98685258 -207.97643622 252.74844944 -212 247.5 C-216.42489724 241.72803995 -220.82046455 235.95258968 -225 230 C-230.02783946 222.86287857 -235.33046816 215.9432833 -240.64453125 209.01757812 C-241.64033203 207.71916992 -241.64033203 207.71916992 -242.65625 206.39453125 C-243.55053711 205.23207886 -243.55053711 205.23207886 -244.46289062 204.04614258 C-248.02687765 199.30189619 -248.02687765 199.30189619 -247.82128906 196.99267578 C-246.84829303 194.63191669 -245.85506496 193.69374944 -243.859375 192.1171875 C-242.88182251 191.33396118 -242.88182251 191.33396118 -241.88452148 190.53491211 C-241.18012939 189.98714111 -240.4757373 189.43937012 -239.75 188.875 C-239.02562744 188.29951416 -238.30125488 187.72402832 -237.55493164 187.13110352 C-232.17329521 182.87012416 -226.73059805 178.68704888 -221.2734375 174.5234375 C-217.66162927 171.75475046 -214.11070679 168.91198299 -210.5625 166.0625 C-203.98796165 160.78263997 -197.37180748 155.55874735 -190.73388672 150.35888672 C-187.82033173 148.07546697 -184.91035807 145.78749197 -182 143.5 C-180.83335027 142.58331177 -179.66668361 141.6666451 -178.5 140.75 C-177.9225 140.29625 -177.345 139.8425 -176.75 139.375 C-171.5 135.25 -171.5 135.25 -169.75024414 133.87524414 C-168.5826959 132.95784991 -167.41521551 132.04036933 -166.24780273 131.12280273 C-163.3451721 128.84155755 -160.44140726 126.56178786 -157.53515625 124.28515625 C-152.18304902 120.08999658 -146.84357675 115.8817142 -141.54492188 111.61914062 C-135.61328291 106.84763294 -129.62655981 102.16472522 -123.5625 97.5625 C-117.2117051 92.73987865 -110.9844471 87.78887441 -104.81323242 82.73901367 C-98.84498534 77.85764766 -92.79431372 73.08822903 -86.71777344 68.34277344 C-83.80728372 66.06766067 -80.90405504 63.7833163 -78 61.5 C-76.83336721 60.58329022 -75.66670056 59.66662352 -74.5 58.75 C-73.9225 58.29625 -73.345 57.8425 -72.75 57.375 C-67.5 53.25 -67.5 53.25 -65.75024414 51.87524414 C-64.5826959 50.95784991 -63.41521551 50.04036933 -62.24780273 49.12280273 C-59.3451721 46.84155755 -56.44140726 44.56178786 -53.53515625 42.28515625 C-47.4986907 37.55387244 -41.48376068 32.79781792 -35.5 28 C-30.09864989 23.66916264 -24.68255192 19.35843781 -19.22338867 15.10058594 C-16.16026714 12.71006957 -13.12418711 10.29291658 -10.1171875 7.83203125 C-9.16211304 7.0587146 -9.16211304 7.0587146 -8.18774414 6.26977539 C-6.96143575 5.27592437 -5.74154564 4.27408746 -4.52905273 3.26342773 C-2.86328125 1.921875 -2.86328125 1.921875 0 0 Z " fill="#377E63" transform="translate(2788,2908)"/>
<path d="M0 0 C1.562651 1.84093132 3.00587423 3.68543141 4.4375 5.625 C5.34431764 6.82867866 6.25189531 8.03178504 7.16015625 9.234375 C7.62953613 9.85892578 8.09891602 10.48347656 8.58251953 11.12695312 C10.81074402 14.07131039 13.09006538 16.97455725 15.375 19.875 C15.82931396 20.45266113 16.28362793 21.03032227 16.75170898 21.62548828 C20.64642084 26.5692739 24.57994027 31.48164448 28.5168457 36.3918457 C33.26494262 42.31871697 37.95799697 48.28784633 42.64111328 54.26611328 C44.92453303 57.17966827 47.21250803 60.08964193 49.5 63 C50.41668823 64.16664973 51.3333549 65.33331639 52.25 66.5 C52.70375 67.0775 53.1575 67.655 53.625 68.25 C57.75 73.5 57.75 73.5 59.12475586 75.24975586 C60.04215009 76.4173041 60.95963067 77.58478449 61.87719727 78.75219727 C64.15844245 81.6548279 66.43821214 84.55859274 68.71484375 87.46484375 C72.91000342 92.81695098 77.1182858 98.15642325 81.38085938 103.45507812 C86.15236706 109.38671709 90.83527478 115.37344019 95.4375 121.4375 C100.26012135 127.7882949 105.21112559 134.0155529 110.26098633 140.18676758 C115.14107071 146.15344767 119.90886231 152.20270822 124.65283203 158.27783203 C126.02395438 160.03062236 127.39984804 161.77955868 128.77734375 163.52734375 C134.9087613 171.30816729 140.97706839 179.13491361 147 187 C143.08355259 191.07461164 138.90205012 194.64830669 134.5 198.1875 C133.79439941 198.75774902 133.08879883 199.32799805 132.36181641 199.91552734 C127.03476239 204.20526455 121.6389542 208.39636502 116.203125 212.546875 C108.5639524 218.38196256 101.03311069 224.35867885 93.54272461 230.38305664 C87.61122011 235.15308217 81.62574658 239.83589197 75.5625 244.4375 C69.2117051 249.26012135 62.9844471 254.21112559 56.81323242 259.26098633 C50.84498534 264.14235234 44.79431372 268.91177097 38.71777344 273.65722656 C35.80728372 275.93233933 32.90405504 278.2166837 30 280.5 C28.83336721 281.41670978 27.66670056 282.33337648 26.5 283.25 C25.9225 283.70375 25.345 284.1575 24.75 284.625 C19.5 288.75 19.5 288.75 17.75024414 290.12475586 C16.5826959 291.04215009 15.41521551 291.95963067 14.24780273 292.87719727 C11.3451721 295.15844245 8.44140726 297.43821214 5.53515625 299.71484375 C-0.5013093 304.44612756 -6.51623932 309.20218208 -12.5 314 C-19.05563 319.25634643 -25.65138496 324.4594206 -32.26611328 329.64111328 C-35.17966827 331.92453303 -38.08964193 334.21250803 -41 336.5 C-42.16664973 337.41668823 -43.33331639 338.3333549 -44.5 339.25 C-45.0775 339.70375 -45.655 340.1575 -46.25 340.625 C-51.5 344.75 -51.5 344.75 -53.24975586 346.12475586 C-54.4173041 347.04215009 -55.58478449 347.95963067 -56.75219727 348.87719727 C-59.6548279 351.15844245 -62.55859274 353.43821214 -65.46484375 355.71484375 C-71.58323031 360.5102196 -77.67989971 365.33111366 -83.75 370.1875 C-84.37745117 370.68717285 -85.00490234 371.1868457 -85.65136719 371.70166016 C-88.4771811 373.95620383 -91.27112454 376.23019348 -94.02734375 378.5703125 C-94.90519531 379.31023438 -95.78304687 380.05015625 -96.6875 380.8125 C-97.43386719 381.45832031 -98.18023438 382.10414063 -98.94921875 382.76953125 C-101 384 -101 384 -102.953125 384.0859375 C-106.13702944 382.39676682 -107.9586837 379.65070647 -110.0625 376.8125 C-111.04403194 375.52585939 -112.02580949 374.23940611 -113.0078125 372.953125 C-113.50571289 372.29376953 -114.00361328 371.63441406 -114.51660156 370.95507812 C-116.7873586 367.96228313 -119.11171383 365.0125961 -121.4375 362.0625 C-121.88810791 361.48862549 -122.33871582 360.91475098 -122.80297852 360.32348633 C-126.17728528 356.02907682 -129.58355835 351.76093061 -133 347.5 C-138.25634643 340.94437 -143.4594206 334.34861504 -148.64111328 327.73388672 C-150.92453303 324.82033173 -153.21250803 321.91035807 -155.5 319 C-156.41668823 317.83335027 -157.3333549 316.66668361 -158.25 315.5 C-158.70375 314.9225 -159.1575 314.345 -159.625 313.75 C-163.75 308.5 -163.75 308.5 -165.12475586 306.75024414 C-166.04215009 305.5826959 -166.95963067 304.41521551 -167.87719727 303.24780273 C-170.15844245 300.3451721 -172.43821214 297.44140726 -174.71484375 294.53515625 C-179.44612756 288.4986907 -184.20218208 282.48376068 -189 276.5 C-194.25634643 269.94437 -199.4594206 263.34861504 -204.64111328 256.73388672 C-206.92453303 253.82033173 -209.21250803 250.91035807 -211.5 248 C-212.41668823 246.83335027 -213.3333549 245.66668361 -214.25 244.5 C-214.70375 243.9225 -215.1575 243.345 -215.625 242.75 C-219.75 237.5 -219.75 237.5 -221.12475586 235.75024414 C-222.04215009 234.5826959 -222.95963067 233.41521551 -223.87719727 232.24780273 C-226.15844245 229.3451721 -228.43821214 226.44140726 -230.71484375 223.53515625 C-231.1644043 222.96192627 -231.61396484 222.38869629 -232.07714844 221.7980957 C-232.97872757 220.64782183 -233.87913328 219.4966272 -234.77832031 218.34448242 C-237.27441202 215.15617837 -239.809873 212.00769802 -242.39453125 208.890625 C-242.95406494 208.20991943 -243.51359863 207.52921387 -244.09008789 206.82788086 C-245.17839482 205.50651394 -246.27499408 204.19192383 -247.38061523 202.88500977 C-248.66579366 201.31805539 -249.84392822 199.66449021 -251 198 C-249.72316452 194.16949356 -247.44143889 192.79720709 -244.3125 190.5 C-243.11791743 189.60232339 -241.9239264 188.70385915 -240.73046875 187.8046875 C-240.11220215 187.3415918 -239.49393555 186.87849609 -238.85693359 186.40136719 C-235.91553044 184.18158621 -233.01926801 181.90570622 -230.125 179.625 C-229.54508301 179.16915527 -228.96516602 178.71331055 -228.36767578 178.24365234 C-224.74234763 175.38899268 -221.13837335 172.50885657 -217.54272461 169.61694336 C-211.61122011 164.84691783 -205.62574658 160.16410803 -199.5625 155.5625 C-193.2117051 150.73987865 -186.9844471 145.78887441 -180.81323242 140.73901367 C-174.84498534 135.85764766 -168.79431372 131.08822903 -162.71777344 126.34277344 C-159.80728372 124.06766067 -156.90405504 121.7833163 -154 119.5 C-152.83336721 118.58329022 -151.66670056 117.66662352 -150.5 116.75 C-149.63375 116.069375 -149.63375 116.069375 -148.75 115.375 C-143.5 111.25 -143.5 111.25 -141.75024414 109.87524414 C-140.5826959 108.95784991 -139.41521551 108.04036933 -138.24780273 107.12280273 C-135.3451721 104.84155755 -132.44140726 102.56178786 -129.53515625 100.28515625 C-123.4986907 95.55387244 -117.48376068 90.79781792 -111.5 86 C-104.94437 80.74365357 -98.34861504 75.5405794 -91.73388672 70.35888672 C-88.82033173 68.07546697 -85.91035807 65.78749197 -83 63.5 C-81.83335027 62.58331177 -80.66668361 61.6666451 -79.5 60.75 C-78.9225 60.29625 -78.345 59.8425 -77.75 59.375 C-72.5 55.25 -72.5 55.25 -70.75024414 53.87524414 C-69.5826959 52.95784991 -68.41521551 52.04036933 -67.24780273 51.12280273 C-64.3451721 48.84155755 -61.44140726 46.56178786 -58.53515625 44.28515625 C-53.18286941 40.08985579 -47.84313274 35.88153673 -42.54443359 31.61865234 C-35.8702338 26.25015979 -29.12145027 20.99351568 -22.29931641 15.81420898 C-18.79959639 13.15414766 -15.32034331 10.47450747 -11.8828125 7.734375 C-11.23771729 7.22076416 -10.59262207 6.70715332 -9.92797852 6.17797852 C-8.71156772 5.2060916 -7.49834514 4.23019677 -6.28881836 3.24975586 C-2.21915038 0 -2.21915038 0 0 0 Z " fill="#377E63" transform="translate(2537,2587)"/>
</svg>
